<svg xmlns="http://www.w3.org/2000/svg" width="80" height="154" viewBox="0 0 80 154" fill="none">
<g opacity="0.1" clip-path="url(#clip0_1865_2906)">
<path d="M4.09425 144.957C5.84317 142.239 6.98732 139.323 9.40637 137.066C11.0899 135.502 13.2148 134.447 14.6041 132.569C16.2549 130.329 17.1376 127.595 18.4942 125.19C21.3219 120.166 26.5686 117.629 29.952 113.083C31.2596 111.32 32.4201 109.409 33.2864 107.383C34.4142 104.748 34.9536 101.898 36.49 99.4436C39.6936 94.3536 45.9865 91.5863 49.8766 86.9905C53.0638 83.2512 55.8098 79.2155 56.3982 74.1915C56.9866 69.2003 56.1203 64.061 54.0282 59.5146C53.6032 58.6086 53.1782 57.7191 52.7206 56.879C54.7474 55.2318 56.3165 53.1892 58.0327 51.2455C60.272 48.7252 62.691 46.3202 64.3746 43.3552C65.2899 41.7574 66.1398 40.176 67.1532 38.6276C67.6272 37.9029 68.2483 37.1616 68.4118 36.2721C68.6896 34.7566 67.856 34.0977 66.7936 33.5542C67.3493 32.9776 67.9051 32.3846 68.4445 31.8081C71.9423 28.1183 75.4401 24.5273 77.7121 19.9151C78.8562 17.5925 81.2753 13.2602 79.1014 10.7894C77.1563 8.58208 72.0567 8.82916 69.703 9.96575C65.7802 11.8765 63.8025 17.8725 61.6776 21.3811C59.6999 24.6426 57.5587 27.7888 55.5483 31.0339C56.9049 27.9536 58.2779 24.8897 59.7489 21.8588C62.0045 17.1971 63.7698 12.2554 64.7015 7.13251C65.3226 3.68979 65.6495 0.461206 61.269 0.0164528C57.2645 -0.395356 54.8781 2.71792 54.257 6.29242C53.5051 10.5752 52.8186 14.7757 51.838 18.9926C49.9746 18.449 47.6536 18.169 46.2153 19.4044C44.1885 21.1505 43.1588 25.4498 42.2598 27.8877C41.083 31.0998 40.1023 34.3119 39.1869 37.6064C38.4024 40.4067 37.389 43.2234 37.4053 46.172C32.6163 45.8261 27.2224 47.638 23.6429 49.8783C19.4422 52.5138 17.2356 55.973 15.5194 60.5523C14.6041 62.9738 13.9339 65.4611 13.1003 67.899C12.0379 71.0288 9.99479 73.1043 7.57574 75.2292C3.89812 78.4578 1.10312 81.4887 -0.0246811 86.4304C-1.16883 91.4874 -0.907311 96.7092 -3.06485 101.519C-4.84645 105.522 -7.60875 109.113 -8.21352 113.56C-8.9327 118.98 -8.63849 124.169 -10.3057 129.506C-11.7113 134.184 -14.065 138.516 -13.9996 143.54C-13.9506 146.884 -12.8882 151.644 -9.70091 153.407C-6.33385 155.252 -2.59084 152.517 -0.253511 150.244C1.39733 148.63 2.85204 146.884 4.09425 144.957ZM66.2379 36.8322C65.9437 37.7546 64.8486 38.7429 64.3255 39.5501C62.9035 41.7574 61.7594 43.9647 59.9941 45.9414C58.425 47.7039 56.6107 49.2358 55.0089 50.949C53.832 52.2009 52.6552 53.4363 51.2822 54.474C50.8899 53.881 50.465 53.321 50.0237 52.7774C51.1024 52.2338 51.5928 51.3113 52.41 50.1748C53.9138 48.0828 55.5973 46.0731 57.2481 44.0965C60.0104 40.7855 62.9852 37.6064 65.96 34.4601C66.3523 35.152 66.5484 35.8273 66.2379 36.8322ZM66.0744 18.6302C67.0715 16.8347 68.0195 14.3639 69.4742 12.8814C70.8962 11.4318 75.5055 10.7894 77.2054 12.2719C79.8206 14.5615 74.3777 22.0894 72.8086 24.1155C70.1443 27.5582 66.8917 30.4738 63.9332 33.653C60.9585 36.8322 57.8039 39.896 55.0089 43.2234C52.786 45.859 50.7755 48.6264 48.6507 51.3278C48.1603 50.8666 47.6373 50.4218 47.0652 50.0265C47.2614 49.6312 47.4412 49.2358 47.6373 48.8405C48.4055 47.8027 49.5823 45.859 49.6968 45.6284C50.6284 43.8329 51.6255 42.0539 52.7042 40.3408C54.8781 36.8651 56.9212 33.3235 59.1605 29.8643C61.5305 26.191 63.9496 22.4847 66.0744 18.6302ZM56.0223 10.5752C56.3655 8.30205 56.2511 6.01239 57.6077 4.08512C58.7192 2.50378 60.8767 1.38366 62.4622 3.06384C63.7371 4.3981 63.1323 5.9465 62.7728 7.75846C62.3641 9.89986 61.792 12.0907 61.1383 14.1827C59.7326 18.7126 57.5097 22.9624 55.5156 27.2452C53.6032 31.3469 51.6908 35.4485 49.6804 39.5007C48.2911 42.301 46.0682 45.6778 45.1365 48.8734C44.826 48.7087 44.4991 48.5605 44.1722 48.4287C44.0251 48.3628 43.8779 48.3134 43.7308 48.264C48.2911 42.9599 50.0564 35.0861 51.7072 28.5136C52.7206 24.4449 53.9791 20.4092 54.8781 16.3241C55.2867 14.4298 55.7117 12.5025 56.0223 10.5752ZM42.8482 32.747C43.551 30.4574 44.401 28.2171 45.3 26.0098C46.0518 24.1814 46.6893 21.414 48.6343 20.4586C49.2554 20.1457 50.4813 20.1127 51.5601 20.1457C51.5274 20.2939 51.4947 20.4422 51.4457 20.6069C50.2361 25.3674 49.3208 30.1938 47.8007 34.8719C46.8691 37.7052 46.0191 40.522 44.7442 43.2234C44.0414 44.7224 43.0934 46.0896 42.4232 47.5721C41.7041 47.1768 40.9522 46.8638 40.1513 46.6497C40.1349 46.6003 40.1186 46.5344 40.1022 46.485C40.8051 41.8727 41.4916 37.244 42.8482 32.747ZM-7.26551 150.821C-9.99512 150.491 -10.698 146.11 -10.7797 143.985C-10.9268 139.949 -9.24325 136.44 -7.88662 132.767C-5.36949 135.518 -1.90436 139.307 1.98575 139.158C2.93376 139.125 3.04818 137.89 2.19824 137.577C0.465668 136.935 -1.13614 136.704 -2.77064 135.666C-4.45417 134.596 -6.13771 133.377 -7.64144 132.059C-7.60875 131.976 -7.57606 131.894 -7.54337 131.812C-6.21943 128.007 -5.48391 124.053 -5.20604 120.034C-5.05894 117.958 -5.20604 115.834 -4.89549 113.791C-4.5359 111.485 -3.48982 109.393 -2.41105 107.35C-2.18222 106.922 -1.95339 106.477 -1.72456 106.049C1.21754 111.073 6.03931 114.763 11.9398 115.669C12.2177 115.718 12.2994 115.356 12.0543 115.257C8.75257 113.923 5.97393 111.452 3.42411 109.03C2.50879 108.157 1.87134 107.054 1.00505 106.131C0.416634 105.505 -0.22082 104.912 -0.84193 104.303C0.285873 101.98 1.21754 99.6083 1.65885 96.9562C2.34534 92.904 2.01844 88.6542 3.42411 84.7337C4.12694 82.7735 5.33647 81.2087 6.7258 79.8085C6.77483 81.1757 6.67676 82.51 7.33056 83.9431C8.42568 86.3151 10.1092 88.8518 11.9562 90.6803C15.5521 94.2218 21.567 96.0667 26.4378 96.7256C27.2388 96.8245 27.2878 95.622 26.6176 95.3914C22.0574 93.8265 16.2713 91.8992 13.0023 88.1435C11.5476 86.4798 10.0929 84.4537 9.04679 82.477C8.40933 81.2746 8.24588 79.9732 7.86995 78.7213C9.86403 76.9094 12.0379 75.2457 13.6397 73.1043C15.879 70.0898 16.5818 66.1529 17.7096 62.5455C17.7913 63.1385 17.9058 63.7315 18.0856 64.3575C18.8374 66.993 20.0633 69.3486 22.0247 71.2923C25.686 74.9327 31.8644 78.0954 37.0948 77.9801C37.863 77.9636 38.1082 76.7282 37.2746 76.5799C32.3711 75.7728 26.8301 72.8737 23.3486 69.2827C21.469 67.339 20.3902 64.8516 19.6547 62.2655C19.3605 61.2277 19.3441 59.9758 19.1153 58.8392C20.047 56.8131 21.1911 55.0341 23.0217 53.5351C25.31 51.6737 27.8926 50.4054 30.6549 49.4335C31.4067 49.1699 32.2076 48.9229 33.0085 48.7087C36.1795 48.7087 39.3667 49.5488 42.3088 50.7348C46.6729 52.5138 48.9122 56.0224 50.9717 60.1076C52.884 63.9127 53.7994 68.0637 53.6359 72.3301C52.5735 72.0995 51.3803 72.2971 50.2852 72.1983C47.67 71.9842 44.7606 71.1605 42.2434 70.3863C37.2419 68.8544 33.6787 63.8962 31.4558 59.4157C31.4231 59.3499 31.3087 59.3993 31.3413 59.4652C33.1883 64.5551 35.6564 70.0075 40.8051 72.5113C42.8809 73.5161 49.7621 76.3329 53.26 75.3116C52.3937 79.1496 50.1708 82.3617 47.5556 85.4091C46.1009 87.1222 44.4337 88.5883 42.7175 89.9884C42.6521 89.8402 42.554 89.7084 42.3906 89.5931C40.3474 88.0776 36.8823 88.0776 34.5123 87.287C30.9491 86.1174 27.3205 83.8113 24.5091 81.3404C24.3947 81.2416 24.2476 81.3899 24.3457 81.5052C28.8079 86.9905 34.3325 89.5931 40.9195 91.4545C39.5465 92.5581 38.1572 93.6618 36.8496 94.8807C33.695 97.7963 32.4855 101.305 30.8837 105.143C29.8866 105.11 28.8242 105.225 27.9252 105.143C26.2417 104.995 24.6072 104.896 22.9237 104.649C20.2268 104.27 17.5462 103.331 15.2742 101.816C12.6427 100.053 10.7794 97.6151 8.68719 95.2596C8.54009 95.0949 8.26222 95.309 8.37664 95.4902C10.3707 98.587 11.8745 101.733 14.7348 104.105C16.9251 105.934 19.8181 106.906 22.5641 107.4C23.6755 107.597 26.9282 108.223 29.4617 108.042C27.6637 111.188 25.212 113.873 22.417 116.229C19.0663 119.046 16.7126 121.994 14.8493 125.981C14.3099 127.134 13.7868 128.353 13.1657 129.489C13.0513 129.423 12.9205 129.357 12.7734 129.341C9.88038 128.764 6.90559 128.863 4.15963 127.661C0.629117 126.112 -2.46008 124.267 -4.5359 120.891C-4.58493 120.792 -4.71569 120.874 -4.683 120.973C-1.62649 127.743 4.4375 130.972 11.4168 131.894C11.3678 131.944 11.3351 131.976 11.286 132.026C9.56982 133.673 7.59208 134.843 6.02296 136.704C3.1299 140.163 1.52809 144.314 -1.75725 147.526C-3.0485 148.811 -5.25508 151.068 -7.26551 150.821Z" fill="#FFFFFF"/>
</g>
<defs>
<clipPath id="clip0_1865_2906">
<rect width="94" height="154" fill="white" transform="translate(-14)"/>
</clipPath>
</defs>
</svg>