<svg xmlns="http://www.w3.org/2000/svg" width="64" height="71" viewBox="0 0 64 71" fill="none">
  <g opacity="0.1" clip-path="url(#clip0_2046_2243)">
    <path d="M13.6132 48.0875C15.5691 48.7312 18.1043 49.0502 20.2024 48.6282C20.2042 48.638 20.2042 48.638 20.2159 48.6459C22.3204 51.0226 24.6687 53.0777 26.9432 55.2793C29.3268 57.572 31.5884 59.9186 34.0926 62.0966C35.5238 63.3499 37.5726 65.3299 39.6285 65.2723C41.8471 65.2141 44.285 64.0143 46.1649 62.9315C51.1525 60.0524 55.4518 55.9712 58.4714 51.0557C59.519 49.3483 60.4317 47.3612 60.0953 45.3384C59.6409 42.6458 58.3638 40.07 57.2407 37.6072C56.0773 35.0402 54.8451 32.4863 53.4493 30.0351C52.7029 28.7424 51.7106 27.5476 51.1297 26.1621C51.0355 25.9358 50.9609 25.7058 50.8863 25.4757C52.4346 23.9371 53.5541 22.0734 53.3452 19.8123C53.133 17.4806 51.3623 15.3047 49.2858 14.2972C48.0513 13.6987 46.1889 13.597 45.2557 12.6048C44.3614 11.6561 44.263 10.0255 43.5565 8.88802C42.1609 6.65053 39.6893 5.75938 37.2101 5.30749C34.4881 4.81044 32.2606 5.46087 29.7172 6.37542C27.1463 7.30544 24.581 5.87222 21.9058 5.88548C19.4443 5.89854 16.8502 6.54791 14.8162 7.99619C12.6284 9.54519 11.4057 11.5611 10.2955 13.9525C10.2993 13.9721 10.2932 13.9936 10.2853 14.0053C9.39885 14.0019 8.54627 13.6968 7.60067 13.9695C6.4624 14.2994 5.41146 14.9791 4.62549 15.8729C3.01385 17.7188 2.86454 20.1299 4.21879 22.1513C4.83291 23.0723 7.16389 24.6114 6.65689 25.6859C6.07005 26.9284 4.83731 27.7753 4.35349 29.1305C3.49222 31.5455 4.74239 33.821 6.55743 35.3775C7.31304 36.027 8.12089 36.524 8.55258 37.4493C8.93601 38.2821 8.81373 39.0793 8.72425 39.9415C8.62662 41.0801 8.39106 42.2961 8.66622 43.4143C9.18187 45.5759 11.6142 47.4317 13.6132 48.0875ZM57.3478 49.601C56.3058 47.7744 55.6223 45.7467 54.6355 43.8892C53.6467 42.0218 52.5929 40.1872 51.6042 38.3198C50.6618 36.5351 49.5736 34.8395 48.5975 33.0919C47.8572 31.7776 47.1616 30.2716 46.181 29.0848C46.3095 28.9584 46.4399 28.8418 46.6096 28.7177C47.7445 27.8386 48.9741 27.1348 50.0721 26.2221C50.2167 26.7646 50.4946 27.3121 50.7434 27.8142C51.3996 29.1141 52.2132 30.3328 52.8633 31.6541C54.1981 34.3716 55.3813 37.1487 56.5291 39.9529C57.1944 41.5666 57.9579 43.1615 58.3379 44.8807C58.7048 46.5311 58.2766 47.8043 57.5328 49.2907C57.4693 49.3843 57.4076 49.4878 57.3478 49.601ZM54.0838 54.1967C51.1085 48.0159 47.4495 41.9864 43.6486 36.2793C44.5136 35.3195 45.129 34.1734 45.364 32.7946C45.4672 32.1639 45.4031 31.6162 45.4161 30.9927C45.4184 30.4729 45.506 30.0795 45.6754 29.7416C46.3575 31.2299 47.2677 32.6338 48.0661 34.0387C49.1409 35.9303 50.2298 37.7887 51.2219 39.7268C52.2238 41.6629 53.3852 43.5278 54.3221 45.4967C54.781 46.4576 55.2085 47.4143 55.6281 48.3827C55.8245 48.8236 56.2858 50.4356 56.6942 49.9094C56.4979 50.1608 56.6076 50.4147 56.8126 50.5282C56.0429 51.8261 55.0973 53.0558 54.0838 54.1967ZM37.2391 39.8685C37.2981 39.8572 37.3472 39.8478 37.4042 39.8267C38.6739 39.492 39.9004 38.9314 41.0412 38.2955C41.851 37.8452 42.6045 37.3141 43.2392 36.6937C44.5934 39.6722 46.6552 42.4643 48.2104 45.3228C49.9414 48.5143 51.5064 51.8495 53.3833 54.9519C52.8253 55.5475 52.242 56.1173 51.663 56.6558C51.404 56.8988 51.1432 57.132 50.8726 57.3671C50.1829 56.1043 49.0942 54.9382 48.2914 53.8293C47.2384 52.3713 46.1303 50.9442 45.04 49.5035C43.6761 47.6978 42.4736 45.8306 40.9835 44.1101C39.7809 42.7214 38.673 41.0296 37.241 39.8783C37.2508 39.8764 37.241 39.8783 37.2391 39.8685ZM40.2555 52.9649C37.8341 50.262 35.2672 47.5971 32.9425 44.8146C33.4986 44.2092 33.9924 43.5445 34.4062 42.8341C34.7444 42.2602 34.8934 41.5495 35.2372 41.0052C35.7598 40.1721 36.2823 40.0822 36.9581 39.9427C36.9104 40.0129 36.8881 40.1088 36.962 40.1761C38.3897 41.6235 39.5703 43.5356 40.8535 45.1328C42.125 46.722 43.1346 48.4327 44.3056 50.0819C46.1881 52.7353 47.9039 55.6344 49.9303 58.1889C48.8777 59.0726 47.753 59.8988 46.5899 60.6306C45.902 59.3776 44.7318 58.1049 43.8032 57.0304C42.61 55.6908 41.4486 54.3045 40.2555 52.9649ZM43.7177 62.1681C43.5386 62.2431 43.3516 62.3298 43.1547 62.4184C42.3442 61.535 41.3897 60.7505 40.5099 59.9313C39.1241 58.649 37.8135 57.2811 36.4534 55.9735C33.6709 53.299 30.8252 50.6671 28.0843 47.9439C28.1806 47.9153 28.277 47.8867 28.3733 47.858C29.9469 47.3023 31.3802 46.3864 32.5509 45.2154C34.7101 48.0907 37.139 50.8329 39.4187 53.5935C40.6129 55.0448 41.8188 56.5041 43.0051 57.9671C43.8846 59.0511 44.5687 60.2845 45.6104 61.205C45.0054 61.555 44.3653 61.8812 43.7177 62.1681ZM22.2354 48.239C24.0821 48.0992 25.9363 48.4773 27.7934 48.02C32.0804 53.2879 36.8718 58.2657 41.722 63.0185C41.0276 63.2736 40.32 63.46 39.6572 63.4545C38.0728 63.4219 36.3244 61.6286 35.191 60.6544C32.8483 58.6287 30.6852 56.4771 28.4869 54.3016C26.423 52.243 24.232 50.3716 22.2354 48.239ZM10.4806 41.2445C10.5527 40.3449 10.7287 39.4559 10.7185 38.5517C10.687 36.4196 9.44643 35.364 7.95299 34.0514C6.89961 33.1229 5.84792 31.9905 6.03125 30.4485C6.17507 29.1788 7.2047 28.2283 7.94993 27.2813C8.88532 26.1044 9.46526 24.9854 8.43865 23.6649C6.92872 21.7343 3.92736 20.1504 5.79211 17.3397C6.40965 16.4171 7.57406 15.5324 8.71817 15.4457C9.51101 15.3855 10.2986 15.7235 11.0904 15.5515C11.892 15.3777 11.9359 14.3308 11.3893 14.0282C12.8302 11.2374 14.6488 9.03622 17.7656 8.03226C20.4419 7.17371 23.4147 7.22566 26.0301 8.28274C28.1822 9.1536 29.694 8.48747 31.8357 7.76181C34.4671 6.88133 37.4062 6.97026 39.9395 8.23651C41.7423 9.14372 42.3275 10.7116 42.9523 12.4858C43.1572 13.0778 43.329 13.6559 43.8196 14.0914C45.2934 15.4077 47.7444 15.2338 49.3505 16.4433C50.7305 17.4824 51.7496 19.2422 51.4743 20.9952C51.2348 22.4563 49.9729 23.7364 48.9044 24.6435C48.0038 25.4166 47.0117 26.0851 46.016 26.7339C45.2647 27.2239 44.2472 27.6529 43.7582 28.449C43.315 29.1651 43.4583 29.8606 43.5067 30.6455C43.6143 32.1114 43.5472 33.3562 42.6329 34.5901C41.1178 36.6213 38.3689 37.4733 36.0508 38.1818C35.1267 38.4606 34.4327 38.6647 33.9176 39.5371C33.3049 40.5911 33.0426 41.7206 32.2773 42.7224C30.7645 44.7123 28.4639 46.1506 25.9554 46.3966C24.7856 46.5086 23.6262 46.3029 22.4591 46.3227C21.5353 46.3367 21.0346 46.6463 20.1736 46.8824C18.027 47.4767 14.4558 46.7451 12.6363 45.4848C11.154 44.4958 10.3386 43.0025 10.4806 41.2445Z" fill="#FD9900"/>
    <path d="M31.7636 33.4435C33.6786 32.8631 36.4922 32.7215 36.5571 30.0822C36.5887 28.8646 35.7215 28.4299 35.3809 27.3955C35.289 27.128 35.2125 26.8881 35.3306 26.6007C35.4986 26.202 36.0453 26.0261 36.394 25.827C37.265 25.3242 38.1281 24.8332 38.8712 24.1411C39.8831 23.2041 40.6645 21.9142 40.0032 20.5339C39.5251 19.5259 38.4545 19.2523 37.6022 18.6824C37.3798 18.5315 37.2472 18.2107 37.2984 17.9464C37.5423 16.6677 39.72 15.3853 37.9685 14.2138C36.5291 13.237 34.4097 13.8668 32.8594 14.2247C32.547 14.2946 32.4197 13.7896 32.7265 13.6901C34.6835 13.01 37.2466 12.0917 39.1876 13.3491C39.9426 13.8359 40.2903 14.482 40.177 15.3793C40.1218 15.8888 39.8656 16.5182 39.6382 16.9792C39.5346 17.1823 39.2752 17.4763 39.0907 17.7356C40.0436 18.2455 40.9037 18.5899 41.5184 19.6737C42.0306 20.5938 42.1985 21.6307 41.9352 22.6484C41.698 23.5898 41.1066 24.4361 40.4205 25.107C39.8985 25.6244 39.3225 26.0198 38.6745 26.3576C38.0816 26.6646 37.2589 26.7814 36.7246 27.128C36.3052 26.852 36.3123 26.9422 36.7674 27.4049C36.9945 27.6872 37.2039 27.9832 37.4053 28.2908C37.6433 28.683 37.8579 29.0594 37.966 29.5172C38.1552 30.3464 37.9343 31.2134 37.5341 31.9417C36.475 33.855 33.9008 35.4067 31.7491 34.4848C31.3485 34.3069 31.274 33.5983 31.7636 33.4435Z" fill="#FD9900"/>
    <path d="M16.1365 39.5711C16.1641 39.0771 16.8437 38.9572 17.1153 39.3124C17.1832 39.4012 18.1595 40.8841 18.0153 40.7692C18.6211 41.2743 19.5671 41.4292 20.2966 41.1979C21.4016 40.854 21.3354 40.5612 22.104 39.6301C22.1952 39.521 22.1711 39.3423 22.3034 39.2355C22.6114 38.9831 22.8612 38.9047 23.2532 38.9315C23.4394 38.9468 23.6112 39.0463 23.7852 39.1046C23.9181 39.1606 24.0529 39.2264 24.1956 39.2805C25.1541 39.8199 25.7458 39.1874 25.9607 37.3848C25.6146 37.0133 26.2058 36.4317 26.5934 36.7546C27.7193 37.6896 27.5979 39.3419 26.5753 40.3827C26.0374 40.9235 25.4145 41.0733 24.6781 40.9496C24.4039 40.9003 23.856 40.7506 23.6612 40.5843C23.5143 40.5615 23.4086 40.541 23.3403 40.5032C23.3342 40.5247 23.3263 40.5364 23.33 40.556C22.86 42.1427 20.6259 43.1304 19.1094 43.1866C17.0063 43.2634 16.0386 41.4531 16.1365 39.5711Z" fill="#FD9900"/>
    <path d="M13.1332 17.9807C12.7034 15.6295 15.106 13.7136 17.0334 12.8254C19.0355 11.9024 20.3917 12.498 21.6223 13.8202C21.9801 13.2427 22.3061 12.7119 23.0851 12.4202C23.8936 12.1229 24.8812 12.2291 25.6431 12.5923C27.4776 13.4527 28.2919 15.3128 27.9938 17.2127C27.9464 17.4967 27.5011 17.5107 27.4741 17.2104C27.3728 15.9367 26.7961 14.5199 25.5536 13.933C24.2877 13.3303 23.4165 13.6193 22.6027 14.7932C22.4579 14.9941 22.401 15.2289 22.2464 15.4316C21.953 15.8136 21.3982 15.7875 21.105 15.4262C20.4564 14.6442 20.2119 13.8459 18.8783 13.8467C18.1448 13.8445 17.4585 14.3017 16.8807 14.6873C15.5297 15.6077 14.7467 16.6231 14.095 18.1122C13.9028 18.597 13.229 18.4816 13.1332 17.9807Z" fill="#FD9900"/>
    <path d="M13.3731 28.9616C12.8706 27.3473 13.8756 26.0553 15.3453 25.4888C15.7053 25.3486 16.0898 25.3361 16.4457 25.2272C16.5617 25.1948 16.6403 25.1798 16.709 25.1666C16.7034 25.1372 16.7038 25.0862 16.714 25.0333C16.8056 24.3947 16.3241 23.7945 16.6201 23.1066C17.2661 21.5881 19.2535 21.9712 20.5251 22.1248C20.9719 22.1717 20.8607 22.814 20.4313 22.8046C19.7548 22.7814 18.6918 22.5471 18.1042 22.9345C16.9644 23.6821 17.8772 24.3016 18.0878 24.923C18.2487 25.3911 18.2911 25.719 17.9505 26.1202C17.4276 26.7396 16.4143 26.6587 15.7443 27.0415C13.4843 28.3192 16.596 29.8413 17.6443 30.4246C18.2261 30.751 18.1548 31.5486 17.4692 31.6901C15.7677 32.0565 13.8835 30.5642 13.3731 28.9616Z" fill="#FD9900"/>
    <path d="M27.5244 25.7128C27.8682 25.1684 29.3347 24.7451 29.4127 24.0888C29.5078 23.256 26.5556 21.6627 25.8239 22.149C25.5972 22.2942 25.341 21.9665 25.5659 21.8115C26.3704 21.2807 26.9969 21.4153 27.879 21.7148C28.8471 22.0385 30.1517 22.471 30.6555 23.4538C31.3697 24.8443 29.5697 26.4514 28.3431 26.7982C27.6785 26.9967 27.133 26.3274 27.5244 25.7128Z" fill="#FD9900"/>
  </g>
  <defs>
    <clipPath id="clip0_2046_2243">
      <rect width="52.36" height="61.97" fill="white" transform="translate(0 9.84521) rotate(-10.8379)"/>
    </clipPath>
  </defs>
</svg>