<svg xmlns="http://www.w3.org/2000/svg" width="66" height="66" viewBox="0 0 66 66" fill="none">
<path d="M0.365661 0.386581L0.365321 0.386909L0.0250453 0.714539L0.0636644 9.80173L0.102309 18.8949L0.512892 19.9212C0.512897 19.9212 0.512902 19.9212 0.512907 19.9212C1.23247 21.6813 2.67183 23.2745 4.303 24.1093C4.30305 24.1093 4.3031 24.1094 4.30316 24.1094L4.7927 24.3541L4.80652 24.361V24.3765V43.7578V63.1203L5.20334 63.9011L5.2035 63.9014C5.5432 64.5935 6.00409 65.1115 6.5794 65.4567C7.15478 65.8018 7.84611 65.975 8.64798 65.975C9.44985 65.975 10.1412 65.8018 10.7166 65.4567C11.2919 65.1115 11.7528 64.5935 12.0925 63.9014L12.0926 63.9011L12.4894 63.1203V43.7578V24.3765V24.361L12.5033 24.3541L12.9928 24.1094C12.9929 24.1094 12.9929 24.1093 12.993 24.1093C14.6241 23.2745 16.0635 21.6813 16.783 19.9212C16.7831 19.9212 16.7831 19.9212 16.7831 19.9212L17.1937 18.8949L17.2323 9.80173L17.2709 0.714539L16.9306 0.386909L16.9303 0.386574C16.691 0.147255 16.3433 0.0266037 15.9941 0.0250168C15.6451 0.0234299 15.2975 0.140854 15.0582 0.373672C15.0581 0.373756 15.0581 0.37384 15.058 0.373924L14.7304 0.71402V7.95906V15.2271V15.2521H14.7054H13.5455H12.3856H12.3606V15.2271V7.95906V0.71402L12.0328 0.373688C12.0327 0.373627 12.0327 0.373566 12.0326 0.373505C11.8988 0.239792 11.786 0.158836 11.6475 0.110611C11.5083 0.0621109 11.341 0.0459595 11.0967 0.0459595C10.8525 0.0459595 10.6852 0.0621109 10.5459 0.110611C10.4075 0.158836 10.2946 0.239792 10.1609 0.373505C10.1608 0.373566 10.1607 0.373627 10.1607 0.373688L9.83292 0.71402V7.95906V15.2271V15.2521H9.80792H8.64798H7.48804H7.46304V15.2271V7.95906V0.71402L7.13527 0.373688C7.13521 0.373627 7.13515 0.373566 7.13509 0.373505C7.00134 0.239792 6.8885 0.158836 6.75003 0.110611C6.61077 0.0621109 6.44348 0.0459595 6.19922 0.0459595C5.95496 0.0459595 5.78768 0.0621109 5.64842 0.110611C5.50995 0.158836 5.39711 0.239792 5.26335 0.373505C5.26329 0.373566 5.26323 0.373627 5.26317 0.373688L4.9354 0.71402V7.95906V15.2271V15.2521H4.9104H3.75046H2.59053H2.56553V15.2271V7.95906V0.71402L2.23799 0.373924C2.23791 0.37384 2.23782 0.373756 2.23773 0.373672C1.99843 0.140854 1.65089 0.0234299 1.30182 0.0250168C0.952645 0.0266037 0.605004 0.147255 0.365661 0.386581ZM14.5494 18.1577L14.5493 18.1582C14.4583 18.5351 14.2412 19.0239 13.9732 19.4936C13.7051 19.9635 13.3849 20.4165 13.0865 20.7213L13.0863 20.7215C12.6714 21.1364 12.1018 21.5245 11.4037 21.8476C11.1146 21.9826 10.8287 22.1367 10.6008 22.2779C10.4869 22.3485 10.3877 22.4157 10.3101 22.4754C10.2318 22.5356 10.1773 22.5868 10.1507 22.6253C10.1334 22.6505 10.1152 22.7064 10.0985 22.8244C10.0819 22.9411 10.0672 23.1144 10.0542 23.3704C10.0283 23.8823 10.0093 24.7223 9.99563 26.0955C9.96824 28.8418 9.9618 33.7192 9.9618 42.3661C9.9618 47.7205 9.95213 52.6335 9.93763 56.2369C9.93038 58.0387 9.92193 59.513 9.91286 60.5514C9.90833 61.0706 9.90365 61.4809 9.89889 61.7687C9.89651 61.9125 9.89411 62.0259 9.8917 62.1069C9.88932 62.1867 9.8869 62.2375 9.88413 62.2541L9.88416 62.2541L9.8839 62.2553C9.75292 62.8578 9.24148 63.3188 8.66087 63.3188C8.34776 63.3188 8.09074 63.247 7.89038 63.098C7.68996 62.949 7.54885 62.7246 7.46398 62.4243L7.46397 62.4243L7.46373 62.4234C7.45831 62.4008 7.4535 62.3537 7.44891 62.2846C7.44426 62.2147 7.43973 62.1201 7.43532 62.0009C7.4265 61.7626 7.41814 61.4253 7.41028 60.989C7.39457 60.1164 7.38088 58.8474 7.3696 57.1809C7.34705 53.8481 7.33416 48.9254 7.33416 42.4048C7.33416 32.8171 7.33416 27.9301 7.30194 25.4013C7.28583 24.1366 7.26166 23.4627 7.22553 23.0858C7.20746 22.8973 7.18651 22.7845 7.16266 22.7098C7.1392 22.6363 7.1129 22.5995 7.08219 22.5626L7.08214 22.5627L7.08105 22.5611C7.01957 22.4751 6.89096 22.3709 6.73361 22.2714C6.57701 22.1723 6.39482 22.0796 6.22891 22.0158C5.38801 21.6924 4.72763 21.2653 4.11925 20.644L4.119 20.6438C3.86555 20.3773 3.5647 19.9306 3.30651 19.4643C3.04835 18.9981 2.83121 18.5093 2.74665 18.1582L2.74656 18.1577L2.66923 17.8098L2.66247 17.7794H2.69363H8.64798H14.6023H14.6335L14.6267 17.8098L14.5494 18.1577Z" fill="#FD9900" stroke="white" stroke-width="0.05"/>
<path d="M53.9236 26.5414L53.9486 26.5415C53.947 26.9104 53.9454 27.2672 53.9438 27.6124C53.9208 32.7611 53.9093 35.3264 53.9969 36.7686C54.0435 37.5378 54.1183 37.9855 54.2337 38.3344C54.3333 38.6357 54.4634 38.8641 54.6343 39.164C54.6614 39.2116 54.6895 39.2609 54.7186 39.3126L54.7188 39.3129C54.8269 39.51 55.1023 39.8657 55.4618 40.2864C55.8207 40.7064 56.2617 41.1892 56.6996 41.6399L58.2848 43.2636L58.2919 43.2709V43.281V53.2037V63.1203L58.6887 63.9011L58.6889 63.9014C59.0286 64.5935 59.4895 65.1115 60.0648 65.4567C60.6402 65.8018 61.3315 65.975 62.1334 65.975C62.9352 65.975 63.6266 65.8018 64.2019 65.4567C64.7772 65.1115 65.2381 64.5935 65.5778 63.9014L65.578 63.9011L65.9748 63.1203V31.9151V0.71402L65.647 0.373688C65.647 0.373627 65.6469 0.373566 65.6469 0.373505C65.5131 0.239777 65.4002 0.158798 65.2633 0.11058C65.1257 0.0621033 64.9616 0.0459595 64.7239 0.0459595C64.4684 0.0459595 64.2918 0.0714188 64.077 0.16935C63.8605 0.268028 63.6047 0.44046 63.1919 0.737129C58.6863 4.0452 55.5706 8.91089 54.2831 14.6526L54.283 14.6528C53.9879 15.9231 53.9872 16.0878 53.9487 26.4953L53.9486 26.5415L53.9236 26.5414ZM63.3825 62.0986L63.3825 62.0989C63.278 62.83 62.78 63.3188 62.1462 63.3188C61.8331 63.3188 61.5761 63.247 61.3758 63.098C61.1753 62.949 61.0342 62.7246 60.9494 62.4243L60.9493 62.4243L60.9492 62.4236C60.9388 62.3823 60.9295 62.2885 60.9207 62.1466C60.9119 62.0035 60.9035 61.8092 60.8957 61.5646C60.88 61.0755 60.8663 60.3851 60.855 59.5023C60.8324 57.7367 60.8195 55.2011 60.8195 51.9666V42.0026L59.0224 40.1801L59.0223 40.18C57.644 38.7761 57.138 38.1674 56.8653 37.583C56.8652 37.583 56.8652 37.5829 56.8652 37.5829L56.5044 36.8227L56.502 36.8239V36.812V27.2115C56.502 18.4887 56.5277 17.4808 56.7343 16.2024L56.7343 16.2023C57.4698 11.8547 59.3924 8.03551 62.3605 5.04199L62.3606 5.04192L63.3401 4.06254L63.3827 4.01995L63.3827 4.08018L63.4214 32.8171C63.4278 40.7231 63.4278 47.9685 63.4214 53.2746C63.4182 55.9276 63.4133 58.0958 63.4069 59.6193C63.4037 60.381 63.4001 60.9816 63.396 61.401C63.394 61.6107 63.3919 61.7752 63.3897 61.8919C63.3875 62.0076 63.3852 62.0783 63.3825 62.0986Z" fill="#FD9900" stroke="white" stroke-width="0.05"/>
<path d="M21.1733 12.5783L21.1734 12.5786C21.351 13.1369 21.8452 13.5277 22.361 13.5277C22.4664 13.5277 22.6533 13.4869 22.8723 13.4177C23.0903 13.3488 23.3372 13.2526 23.5616 13.1436L23.5618 13.1435C25.9619 12.0082 28.6714 11.2986 31.368 11.0922C37.5872 10.6149 43.6516 12.7952 48.1805 17.1429C48.4701 17.4196 48.7629 17.6801 49.0024 17.8778C49.1221 17.9767 49.2284 18.0596 49.3141 18.121C49.4007 18.183 49.4638 18.2209 49.4984 18.2325C50.2691 18.4723 51.1051 17.9417 51.2446 17.1054C51.2948 16.7849 51.2236 16.4887 50.935 16.0949C50.6452 15.6995 50.1382 15.2083 49.3197 14.4994C44.1565 10.0579 37.8091 7.93383 31.0753 8.42303C28.0883 8.64188 24.8694 9.50447 22.3207 10.7787C21.8068 11.0356 21.4603 11.3069 21.2721 11.6025C21.0849 11.8967 21.0529 12.2174 21.1733 12.5783Z" fill="#FD9900" stroke="white" stroke-width="0.05"/>
<path d="M48.4449 35.6568L48.4449 35.6567C48.5871 34.8681 48.6354 33.6547 48.6 32.4637C48.5645 31.2728 48.4452 30.1009 48.2511 29.3956M48.4449 35.6568L48.227 29.4023M48.4449 35.6568C47.2702 42.0456 42.5327 46.9373 36.1563 48.3699C35.3546 48.5509 34.1797 48.6411 33.006 48.6411C31.8324 48.6411 30.6575 48.5509 29.8558 48.3699C23.647 46.976 19.1677 42.484 17.619 36.1092L17.6189 36.1087C17.5151 35.6417 17.4507 34.5565 17.4507 33.0105C17.4507 31.4645 17.5151 30.3793 17.6189 29.9123L17.619 29.9118C19.0386 24.0792 22.8981 19.8066 28.3587 18.0641L28.3587 18.0641C29.1143 17.8252 30.0629 17.6219 30.9613 17.4913C31.859 17.3608 32.7086 17.3024 33.2658 17.3542M48.4449 35.6568L33.2658 17.3542M48.2511 29.3956L48.227 29.4023M48.2511 29.3956C48.2511 29.3957 48.2511 29.3957 48.2511 29.3958L48.227 29.4023M48.2511 29.3956C47.4768 26.5184 46.2635 24.2725 44.3402 22.2332M48.227 29.4023C47.4537 26.5286 46.2422 24.2863 44.3219 22.2502M44.3402 22.2332L44.3219 22.2502M44.3402 22.2332C44.3401 22.2332 44.3401 22.2331 44.3401 22.2331L44.3219 22.2502M44.3402 22.2332L44.3219 22.2502M33.2658 17.3542C33.2657 17.3542 33.2656 17.3542 33.2656 17.3542L33.2638 17.3791L33.2661 17.3542C33.266 17.3542 33.2659 17.3542 33.2658 17.3542ZM29.8528 14.9424L29.8527 14.9424C26.1332 15.5859 22.787 17.3488 20.0711 20.0772L20.071 20.0773C17.3037 22.8314 15.5792 26.1514 14.9356 29.909C14.6655 31.5042 14.6655 34.5168 14.9356 36.1119C15.5792 39.8567 17.3166 43.1896 20.0711 45.9438C22.8256 48.6979 26.1589 50.4351 29.9042 51.0785C31.4996 51.3487 34.5125 51.3487 36.1079 51.0785C41.8867 50.1005 47.0093 46.2269 49.5319 40.9378L49.5319 40.9378C50.7546 38.3898 51.2823 35.9838 51.2823 33.0105C51.2823 27.9269 49.5192 23.6421 45.941 20.0772L45.941 20.0772C43.1865 17.3102 39.866 15.5859 36.1079 14.9425C35.356 14.8139 34.1559 14.7495 32.9609 14.7495C31.7659 14.7495 30.5788 14.8139 29.8528 14.9424ZM34.5673 17.4444L34.5655 17.4693L34.5672 17.4444C34.5672 17.4444 34.5673 17.4444 34.5673 17.4444Z" fill="#FD9900" stroke="white" stroke-width="0.05"/>
<path d="M32.1705 21.3682L32.1705 21.3683L32.1699 21.3687C31.8751 21.5694 31.6969 21.9544 31.6587 22.3507C31.6205 22.7473 31.723 23.1472 31.9792 23.3784L31.9792 23.3784L31.9794 23.3786C32.1302 23.5168 32.3582 23.6281 32.6007 23.6951C32.843 23.762 33.0967 23.7839 33.2981 23.7462C33.7701 23.6517 34.1056 23.2673 34.2358 22.8166C34.3659 22.3659 34.2891 21.854 33.9425 21.5075C33.8086 21.3736 33.6957 21.2926 33.5588 21.2444C33.4211 21.1959 33.2571 21.1797 33.0193 21.1797C32.8538 21.1797 32.6752 21.202 32.5206 21.2371C32.365 21.2724 32.2371 21.3198 32.1705 21.3682Z" fill="#FD9900" stroke="white" stroke-width="0.05"/>
<path d="M22.8592 26.8117L22.8592 26.8117C21.7787 28.6123 21.1744 30.7084 21.1744 32.5978C21.1744 33.0627 21.181 33.3236 21.2253 33.5069C21.2688 33.6872 21.3489 33.7928 21.5022 33.9461C21.636 34.0799 21.7489 34.1609 21.8874 34.2092C22.0267 34.2577 22.194 34.2738 22.4382 34.2738C22.9291 34.2738 23.2746 34.1276 23.4989 33.8124C23.7246 33.4951 23.8309 33.0023 23.8309 32.3014C23.8309 31.8662 23.9477 31.2546 24.1381 30.6094C24.3285 29.9638 24.5933 29.2825 24.8906 28.7075L24.8906 28.7075C25.6533 27.2338 27.2295 25.6579 28.7033 24.8952L28.7033 24.8952C29.303 24.5858 29.6631 24.3621 29.8739 24.1291C30.0826 23.8984 30.1462 23.6572 30.1462 23.3066C30.1462 22.9927 30.1044 22.7624 30.0058 22.5808C29.9075 22.3997 29.7509 22.2643 29.5153 22.1433L29.5151 22.1432C29.26 22.0092 29.0521 21.9499 28.8085 21.9688C28.5636 21.9878 28.2803 22.0859 27.8748 22.2726C26.0233 23.1468 23.9006 25.0635 22.8592 26.8117Z" fill="#FD9900" stroke="white" stroke-width="0.05"/>
<path d="M36.138 57.4948C34.411 57.7139 31.176 57.6752 29.4619 57.4303C26.6136 57.0309 23.5462 55.9999 21.033 54.6211M36.138 57.4948L21.033 54.6211M36.138 57.4948C40.1978 57.0051 44.3091 55.3685 47.6343 52.9201L36.138 57.4948ZM21.033 54.6211L21.0451 54.5992C21.0451 54.5992 21.0451 54.5992 21.0451 54.5992C21.0451 54.5992 21.0451 54.5992 21.0451 54.5992L21.033 54.6211ZM19.4782 51.7007C19.4782 51.7008 19.4782 51.7008 19.4781 51.7008L19.4607 51.683L19.4783 51.7006C19.4783 51.7007 19.4783 51.7007 19.4782 51.7007ZM21.7679 51.8978C21.7679 51.8978 21.7679 51.8978 21.7679 51.8978L21.7805 51.8763L21.7679 51.8978ZM43.1091 52.517C43.1091 52.517 43.1091 52.517 43.1091 52.517L43.0976 52.4948L43.1091 52.517ZM50.3072 46.6617L50.2892 46.6443L50.3074 46.6615C50.3073 46.6616 50.3073 46.6617 50.3072 46.6617ZM52.5474 47.9232C52.5474 47.9232 52.5475 47.9232 52.5475 47.9232L52.5705 47.933L52.5474 47.9232Z" fill="#FD9900" stroke="white" stroke-width="0.05"/>
<path d="M15.9667 50.7591L15.9667 50.7591L15.9668 50.7592C16.4778 51.0241 17.037 50.8829 17.4175 50.5374C17.7979 50.1919 17.9962 49.6451 17.7879 49.1022L17.7878 49.1019C17.6797 48.8094 17.5214 48.5951 17.3092 48.4536C17.0969 48.3121 16.8283 48.242 16.4966 48.242C16.2589 48.242 16.0948 48.2581 15.9572 48.3066C15.8203 48.3549 15.7074 48.4359 15.5736 48.5696C15.271 48.8786 15.1692 49.3241 15.2437 49.7445C15.3183 50.1649 15.5687 50.557 15.9667 50.7591Z" fill="#FD9900" stroke="white" stroke-width="0.05"/>
</svg>