<svg xmlns="http://www.w3.org/2000/svg" width="72" height="68" viewBox="0 0 72 68" fill="none">
<g opacity="0.1" clip-path="url(#clip0_2046_2239)">
<path d="M70.4757 31.5084C70.874 29.7773 70.926 27.9414 70.7355 26.2103C69.6444 16.3487 61.8337 5.89253 52.7933 2.02829C48.2732 0.0874354 43.2334 -0.262269 38.1417 0.174862C30.7986 0.349714 23.3343 1.97584 16.4934 4.09155C7.27989 6.94164 -1.25821 12.0298 -7.42366 19.6534C-10.108 22.9756 -12.3941 26.7349 -12.8098 31.0887C-13.1735 34.918 -13.312 40.2859 -10.9913 43.6781C-10.8701 47.5948 -10.0561 51.8961 -7.68344 54.8511C-4.87781 58.3657 -0.998434 61.5305 3.08877 63.3664C13.047 67.8427 25.3086 68.5421 36.0462 67.6678C46.143 66.846 56.2744 62.8943 63.9985 56.1625C70.4584 50.5498 74.3031 39.7089 70.4757 31.5084ZM-6.85214 24.0247C-1.53531 15.8766 7.15866 10.1065 16.1644 6.95913C17.6364 6.45205 19.1432 5.94498 20.6672 5.47288C24.9276 4.58114 29.2053 3.77682 33.535 3.3222C38.0205 2.8501 43.1122 2.09824 47.5804 2.98998C56.2744 4.7385 64.7952 12.5544 67.5142 21.0172C68.3975 23.7799 68.7785 27.0671 68.1896 30.0746C67.7047 30.4068 67.4276 31.0363 67.7567 31.7007C67.5142 32.4526 67.1851 33.1695 66.7868 33.8339C65.4186 36.142 63.4616 36.7714 60.9504 36.9638C59.7901 37.0512 59.0973 36.9463 58.1448 37.7681C55.6509 39.9188 54.9582 43.748 53.1051 46.4058C51.2173 49.0985 48.481 48.8362 45.71 47.8745C44.4804 47.4549 43.4239 46.773 42.0904 47.2276C39.5099 48.1018 37.9512 51.8437 36.1501 53.6272C34.5568 55.2008 32.3919 57.0018 30.002 56.4248C27.231 55.7604 26.1572 52.9802 25.0142 50.7071C24.2175 49.1335 23.0745 46.7904 20.9616 47.0702C18.3465 47.4199 17.1862 51.0044 15.1426 52.3333C10.328 55.5156 7.34916 50.9869 6.11954 46.8604C5.44411 44.6048 4.33571 43.0836 1.80719 43.3808C-0.600104 43.6781 -2.36661 44.8671 -4.91245 44.2376C-7.82199 43.5382 -9.10357 41.5099 -9.58849 38.6773C-10.4198 33.5192 -9.72704 28.4135 -6.85214 24.0247ZM59.2878 56.1975C51.7715 61.4256 42.991 64.6953 33.8121 64.9751C24.8064 65.2548 15.7833 65.0625 7.12402 62.2474C2.49994 60.7436 -1.22358 58.2433 -4.66999 54.7987C-7.1812 52.2808 -8.61864 48.9411 -9.39798 45.4441C-6.71359 47.6472 -3.02472 47.8745 0.248511 46.738C1.47814 46.3009 2.81167 45.7763 3.64297 46.9828C4.07593 47.6297 4.09325 48.6614 4.38767 49.3957C5.01114 51.0044 5.9983 52.7179 7.24525 53.9069C9.60059 56.145 13.1682 55.9177 15.766 54.2741C17.013 53.4873 17.8789 52.3682 18.7448 51.1792C19.732 49.8329 21.0655 48.3641 22.6762 49.8154C23.4036 50.4623 23.646 52.2808 24.027 53.19C25.2913 56.215 27.4561 58.9776 30.9372 59.2574C34.7819 59.5721 38.3669 56.18 40.5317 53.3124C41.1552 52.4731 41.6574 51.1967 42.506 50.5847C43.4932 49.8678 43.8742 50.305 44.948 50.6722C46.8877 51.3541 49.0698 51.9836 51.1134 51.4415C54.9755 50.4274 56.4129 46.8604 57.8504 43.4857C58.5085 41.9645 59.1493 39.8838 60.9331 39.3243C61.7124 39.0795 62.7342 39.2893 63.5482 39.1144C65.2801 38.7472 66.7868 37.8205 67.9818 36.4917C68.3282 36.107 68.6226 35.7048 68.8997 35.2852C69.4366 38.5199 68.8131 41.9645 67.9818 45.0769C66.7349 49.9028 63.2884 53.4173 59.2878 56.1975Z" fill="#FD9900"/>
<path d="M47.4075 23.4302C47.2516 20.4752 45.3812 19.531 42.8007 18.8316C41.9348 18.6043 41.5711 19.9507 42.437 20.178C46.3337 21.2446 46.3684 23.7974 44.9656 26.0355C44.7924 25.9131 44.5846 25.8257 44.3075 25.8082C41.0862 25.7033 39.2851 22.1189 36.0291 22.3636C34.7649 22.4511 33.4833 23.133 32.4095 23.745C30.262 24.9689 29.1883 25.6159 26.5039 25.1962C22.1396 24.5143 17.7233 26.088 15.5238 29.9347C15.2294 29.043 15.2814 28.0289 15.8875 26.9098C17.0133 24.8465 19.5245 23.0805 21.4122 21.7691C26.2268 18.4644 31.7168 16.8908 37.4493 16.1564C37.8996 16.1039 37.9342 15.387 37.4493 15.422C29.2575 15.8591 21.5854 17.9923 15.4026 23.6925C9.9126 28.7283 13.7054 35.1803 20.3211 36.0895C28.3916 37.2086 36.5833 35.5125 43.1644 30.5817C45.4678 28.8681 47.5634 26.5426 47.4075 23.4302ZM42.1426 28.8856C39.8219 30.4243 37.2588 31.5609 34.6437 32.3827C30.1235 33.8165 24.7547 34.4284 20.0613 33.3968C18.6585 33.0821 17.2211 32.3652 16.3032 31.3336C17.8272 29.5151 19.8016 27.7141 22.0876 27.1021C24.8586 26.3503 27.5084 28.1687 30.262 27.5043C31.128 27.2945 31.6995 26.9098 32.4442 26.4377C34.8515 24.934 36.4102 24.0947 39.2504 25.7383C40.9823 26.7349 41.5538 27.9065 43.251 28.0289C42.8873 28.3436 42.5236 28.6234 42.1426 28.8856Z" fill="#FD9900"/>
</g>
<defs>
<clipPath id="clip0_2046_2239">
<rect width="85" height="68" fill="white" transform="translate(-13)"/>
</clipPath>
</defs>
</svg>