<svg xmlns="http://www.w3.org/2000/svg" width="64" height="156" viewBox="0 0 64 156" fill="none">
<g opacity="0.1" clip-path="url(#clip0_2046_1854)">
<path d="M17.2433 80.0955C17.4549 79.1319 17.9852 78.3818 18.6825 77.7913C16.8724 75.2476 15.5813 71.7649 15.3899 68.8009C15.1486 65.2611 14.6803 61.0983 15.4373 57.6115C16.123 54.4597 17.6647 51.0438 19.4558 48.3818C20.1236 47.388 21.7341 45.4066 23.1117 45.2999C23.0264 45.0903 22.9447 44.8935 22.8502 44.7002C21.8945 42.5785 20.7936 40.5243 19.718 38.4631C17.6846 34.5686 15.508 30.7001 13.5818 26.7486C12.8262 25.2023 12.1214 23.6419 11.4166 22.0815C11.0036 21.181 9.75944 19.6464 10.2108 18.5616C10.5959 17.6323 12.0976 17.3815 12.8873 17.026C13.9364 16.5712 15.5074 15.0397 16.7362 15.2346C17.6633 15.3759 17.8902 16.2456 18.2426 17.0258C19.063 18.8559 19.858 20.693 20.6692 22.5394C22.1936 26.026 23.5764 29.593 24.9302 33.1543C25.9261 35.2238 26.884 37.3039 27.851 39.3677C28.2266 40.1826 28.5952 40.972 28.9765 41.7579C30.4903 40.8593 32.8078 40.6434 34.208 40.4207C38.0391 39.7999 42.0563 39.7036 45.8393 40.6869C50.9188 42.011 57.7944 44.5935 60.2493 49.7153C61.7977 48.5465 63.7366 47.9006 65.6598 48.6303C69.6866 50.1495 70.2564 54.2842 68.9403 57.7748C70.3501 59.9081 71.427 62.2707 72.8022 64.4273C74.5799 67.1994 76.5211 69.8714 78.3333 72.6202C81.9077 78.0357 85.162 83.6769 88.3839 89.2996C91.5824 94.8876 94.9644 100.398 98.3138 105.889C101.066 110.407 104.768 115.445 103.471 121.028C103 123.078 101.767 124.846 100.717 126.631C99.0149 129.515 96.5484 132.007 94.1573 134.328C90.1826 138.184 85.0029 142.77 79.4557 144.003C77.5908 144.423 76.1308 143.935 74.5884 142.853C71.8222 140.903 69.3366 138.437 66.899 136.094C62.4657 131.821 58.2623 127.293 54.2063 122.655C49.4292 117.188 44.6809 111.727 40.1259 106.075C35.5779 100.449 30.6308 95.2074 25.8079 89.8218C25.7881 89.7999 25.7846 89.7871 25.7649 89.7652C25.5139 89.6974 25.2594 89.617 25.014 89.5203C21.7415 88.2587 16.3092 84.2758 17.2433 80.0955ZM21.0998 28.3444C20.3289 26.199 19.5015 24.0965 18.5563 22.013C18.1468 21.1252 17.2414 17.6044 16.4983 17.2888C15.8166 16.9974 13.15 18.4206 12.5789 18.8254C11.5967 19.5222 11.9013 19.6848 12.432 20.8133C12.7668 21.5298 13.0508 22.2604 13.3821 22.9641C15.1814 26.7038 17.2424 30.3027 19.1708 33.9656C20.1252 35.7861 21.083 37.6193 22.0501 39.4362C23.0672 41.3353 23.8452 43.7531 25.1005 45.4766C25.6701 46.2516 26.5012 46.8857 27.5785 46.7797C29.217 46.6282 29.0853 45.8556 28.6595 44.9585C28.2599 44.452 27.8567 43.9327 27.5621 43.4108C26.7282 41.9272 26.1087 40.3295 25.4075 38.7819C23.8787 35.3787 22.3726 31.8595 21.0998 28.3444ZM46.7485 42.9861C43.4978 41.9516 40.3013 41.6564 36.8981 41.8982C35.3449 42.0124 33.7861 42.1556 32.2414 42.3497C31.4645 42.4549 30.3407 42.4914 29.391 42.7129C29.5904 43.1377 29.7991 43.5463 30.0147 43.9803C30.4052 44.75 30.943 45.904 30.7645 46.7899C30.2671 49.1901 26.7519 48.9282 25.1115 48.134C24.3381 47.7582 23.875 47.0223 23.4972 46.2492C22.0764 47.5335 20.8205 49.5128 19.9905 51.1548C18.6485 53.7612 17.1725 56.871 17.1248 59.86C17.0652 62.7563 17.0937 65.7242 17.3978 68.6021C17.6513 71.0004 18.662 73.2716 19.8637 75.3939C19.9049 73.2706 20.305 71.0618 20.6444 68.9795C21.343 64.59 24.3421 59.578 22.2389 55.3326C22.043 54.9205 22.4047 54.4502 22.8031 54.4086C23.7083 54.3228 24.4753 54.8238 25.4017 54.8144C27.2926 54.7851 29.1673 53.7591 30.2751 52.2323C31.6664 50.2979 31.9988 48.1901 34.1944 46.8423C36.0156 45.7215 40.7294 45.3777 41.4045 47.7691C42.4678 46.8716 43.7517 46.2285 45.1216 45.6988C47.346 44.8504 49.8087 44.8138 52.1521 45.2353C50.4602 44.3045 48.6364 43.5884 46.7485 42.9861ZM58.0157 50.5799C54.3269 46.4302 46.1842 44.8975 41.8259 48.9964C39.8727 50.8257 39.7694 53.7615 38.3055 55.9765C37.1307 57.7551 35.7281 59.5006 33.6102 60.1412C33.2837 60.2452 32.9616 59.7721 33.3015 59.5684C36.6823 57.4677 37.9525 54.3051 39.2636 50.7473C39.6163 49.7996 40.1268 49.0275 40.7614 48.3583C40.096 47.5824 38.8531 47.3365 37.8583 47.2963C35.8976 47.2214 34.503 48.1557 33.4044 49.6663C32.2747 51.213 31.9156 53.0265 30.5033 54.3907C28.5515 56.2745 26.1791 56.8346 23.7743 56.1421C23.8631 56.3644 23.9646 56.5832 24.0013 56.765C24.1196 57.3905 24.0808 57.9909 24.0489 58.6168C23.9112 60.8354 23.0663 62.7695 22.5654 64.9102C22.0646 67.0508 21.9345 69.1987 21.8243 71.3684C21.7444 72.8579 21.3641 74.5949 21.8511 76.0098C22.1797 75.8641 22.4991 75.7346 22.8058 75.6087C26.4974 74.0391 29.9347 72.1422 33.3444 70.0472C39.6316 66.1553 45.6594 61.8689 51.8 57.7433C52.3189 57.298 52.8217 56.8436 53.3244 56.3891C55.164 54.7421 56.8457 52.9194 58.6261 51.2064C58.605 51.13 58.5839 51.0536 58.5789 50.9864C58.5289 50.9042 58.4697 50.8383 58.4232 50.7689C58.2695 50.7566 58.1341 50.7117 58.0157 50.5799ZM74.5902 139.699C75.6279 140.536 76.8023 141.72 78.23 141.695C79.6033 141.672 81.2398 140.822 82.3665 140.154C84.9252 138.637 87.5305 136.943 89.765 134.994C93.9152 131.378 98.0564 127.038 100.39 121.99C101.186 120.275 101.288 118.519 100.959 116.786C99.2041 117.505 96.8394 117.501 95.354 117.514C90.3674 117.563 84.7309 116.694 81.3229 121.216C78.9839 124.318 79.8131 128.6 78.4625 132.114C77.6303 134.291 76.0365 137.667 73.6534 138.929C73.9699 139.185 74.2772 139.456 74.5902 139.699ZM72.1378 137.648C73.4295 136.441 74.9807 135.628 75.9757 133.94C76.903 132.353 77.3572 130.884 77.7467 129.13C77.947 128.225 78.3314 127.392 78.4866 126.471C78.6418 125.551 78.6271 124.608 78.8656 123.692C79.2288 122.289 80.056 121.032 80.9833 119.939C83.2503 117.268 86.4378 116.346 89.8416 116.255C91.9172 116.202 93.9977 116.216 96.0747 116.217C97.2217 116.215 99.2205 116.28 100.726 115.795C99.73 112.244 97.165 108.799 95.4317 105.891C94.8368 104.876 94.2292 103.865 93.6217 102.853C93.1427 104.974 91.4926 106.912 89.7821 108.235C86.0571 111.117 80.61 112.267 75.9801 112.519C73.2615 112.667 69.7161 112.098 67.3463 113.755C64.1416 115.999 66.5362 119.025 66.5012 122.011C66.4756 123.746 65.1097 125.426 64.1768 126.795C63.6754 127.551 63.093 128.013 62.4119 128.366C65.5248 131.619 68.7689 134.754 72.1378 137.648ZM61.2827 127.198C61.2953 127.194 61.308 127.191 61.3207 127.187C62.396 126.629 62.9551 125.885 63.6067 124.882C64.35 123.716 65.1454 122.591 65.1019 121.15C65.0745 120.211 64.8011 119.272 64.7448 118.328C64.6823 117.015 64.4378 115.588 65.1938 114.419C66.1069 113.028 68.1544 112.379 69.6625 112.003C71.564 111.518 73.5105 111.542 75.4494 111.39C77.8154 111.202 80.3712 110.564 82.652 109.919C86.2146 108.92 93.1778 105.842 92.6856 101.247C90.6077 97.7353 88.5263 94.2107 86.5464 90.6581C85.2629 88.339 83.9448 86.0431 82.6268 83.7473C82.9016 84.7409 83.0678 85.7372 82.921 86.7377C82.6035 88.8002 81.2848 90.7008 79.9007 92.167C76.5471 95.7001 72.0474 97.9045 67.2884 98.7271C64.524 99.2037 61.6102 99.0908 58.9627 100.138C57.511 100.718 55.6531 101.657 55.1164 103.273C54.739 104.378 54.8523 105.924 54.824 107.056C54.78 109.071 54.5442 111.083 53.6296 112.913C53.1408 113.912 52.3976 115.325 51.4168 116.076C54.5712 119.825 57.8631 123.577 61.2827 127.198ZM49.4691 113.776C49.7758 114.144 50.0986 114.521 50.4052 114.888C51.0377 114.508 51.7795 113.288 52.0962 112.803C52.9015 111.565 53.3261 110.186 53.4997 108.739C53.6988 107.039 53.4466 105.188 53.7775 103.52C54.4132 100.286 57.8701 98.6579 60.7664 97.9666C62.9704 97.4393 65.2525 97.3429 67.4847 96.9175C70.3274 96.3781 72.8881 95.3133 75.2988 93.7552C77.4423 92.367 79.5836 90.7737 80.779 88.4272C81.798 86.4312 81.6474 84.0593 81.4616 81.8068C79.9645 79.2588 78.4329 76.7341 76.8702 74.2454L76.8667 74.2326C76.8713 76.5215 75.7824 78.9071 74.3418 80.6631C71.0679 84.6816 65.6772 85.5417 60.8534 86.0805C57.9508 86.4033 53.8913 86.5936 51.4573 88.3639C49.0015 90.1539 48.0379 93.6841 46.7826 96.3077C45.8433 98.2954 44.2046 99.928 42.5208 101.299C41.9511 101.758 41.1628 102.415 40.3273 102.852C43.3887 106.462 46.4226 110.121 49.4691 113.776ZM39.2157 101.5C40.2979 100.967 41.3978 100.499 42.3666 99.6547C44.6194 97.674 45.5532 95.4684 46.7563 92.8044C48.4397 89.0613 50.5572 86.5421 54.6577 85.7097C59.5845 84.7036 64.8228 84.8729 69.4593 82.7678C72.068 81.58 74.0536 79.7692 75.1989 77.0937C75.9006 75.4323 75.8381 73.8726 75.6043 72.2368C74.2213 70.1509 72.8038 68.0883 71.4554 65.9791C70.1697 63.9486 69.1167 61.7714 68.02 59.6338C64.8749 64.8096 60.6625 69.2385 56.3127 73.4174C51.6949 77.8623 46.6041 82.1776 40.9974 85.319C38.3484 86.8059 35.5804 88.0103 32.6734 88.9103C31.4149 89.2995 30.265 89.6861 29.12 89.8931C32.5635 93.6992 35.9033 97.5752 39.2157 101.5ZM24.0409 86.3474C26.7465 88.1772 28.9412 87.6661 31.882 86.8391C34.7085 86.0436 37.454 84.9551 40.0388 83.582C44.7762 81.0513 49.0441 77.4161 53.0259 73.8328C56.8673 70.3842 60.8653 66.5632 63.8749 62.3299C65.429 60.1447 67.3146 57.9228 67.5885 55.1592C67.7586 53.4528 67.2477 52.0994 65.7609 51.0707C63.8745 49.7823 62.0216 50.7884 60.5909 52.1852C57.1591 55.5342 53.6399 58.7154 49.8261 61.6215C44.8714 65.3917 39.9055 68.9731 34.5391 72.144C30.9263 74.2952 27.2578 76.3931 23.2652 77.566C23.0473 77.6674 22.8294 77.7688 22.6116 77.8702C22.4529 78.2844 21.9819 78.6066 21.5307 78.4571C21.4143 78.5304 21.298 78.6038 21.1817 78.6771C21.0371 78.8953 20.8242 79.0639 20.5704 79.1341C19.9731 79.6422 19.5691 80.2064 19.5281 80.8486C19.3727 83.0034 22.5287 85.3257 24.0409 86.3474Z" fill="#FD9900"/>
<path d="M27.0927 80.1414C34.2306 77.3993 40.8006 73.196 46.9511 68.7111C50.2255 66.3244 53.4167 63.9333 56.2358 60.9869C57.4211 59.7403 58.531 58.4185 59.5887 57.0564C60.6775 55.6582 62.4254 54.1736 63.2836 52.6335C63.4303 52.3735 63.9146 52.4453 63.8342 52.7966C63.4928 54.1801 62.457 55.2757 61.6883 56.4482C60.5594 58.1455 59.4001 59.7826 58.0822 61.3402C55.3406 64.5668 52.2178 67.2544 48.8086 69.7469C42.3197 74.49 35.3823 79.6863 27.3646 81.273C26.716 81.3975 26.5011 80.3736 27.0927 80.1414Z" fill="#FD9900"/>
</g>
<defs>
<clipPath id="clip0_2046_1854">
<rect width="74" height="141" fill="white" transform="matrix(-0.963815 0.266572 0.266572 0.963815 71.3223 0)"/>
</clipPath>
</defs>
</svg>