<svg xmlns="http://www.w3.org/2000/svg" width="65" height="65" viewBox="0 0 65 65" fill="none">
<g clip-path="url(#clip0_1666_2246)">
<path d="M27.8154 1.333C25.0732 2.05664 22.5977 2.74218 22.3184 2.86914C22.0518 2.98339 21.6328 3.30078 21.3916 3.56738C20.6299 4.41796 20.5664 4.8623 20.5664 9.61035V13.8379H11.2354C0.990234 13.8379 1.44727 13.7998 0.672852 14.6123C0.0761719 15.2471 0 15.5771 0 17.5322C0 19.3603 0.0888672 19.7539 0.62207 20.3633C0.875977 20.6553 1.47266 20.96 1.95508 21.0615L2.33594 21.1504L5.16699 41.8818C7.41406 58.3604 8.04883 62.7275 8.25195 63.1465C8.58203 63.8447 9.2041 64.4668 9.83887 64.7588C10.3213 64.9873 11.4385 65 36.0801 65C61.7627 65 61.8135 65 62.5117 64.7334C63.3242 64.4414 64.2002 63.6416 64.6445 62.8291C64.9111 62.3213 64.9365 62.0801 64.9746 60.0869L65.0254 57.9033L64.5811 57.4209L64.1367 56.9385L62.8545 56.9004L61.5723 56.8496L61.585 55.6309V54.3994L62.3721 54.0186C65.127 52.6729 65.1016 48.585 62.3213 47.1631L61.75 46.8711L61.9404 46.0332L62.1436 45.1953H62.6387C63.4131 45.1953 64.2129 44.751 64.6445 44.0654L65.0127 43.4814L64.9619 41.1328C64.9238 39.127 64.8604 38.6064 64.5811 37.5527C63.9209 35.0771 62.7275 33.0205 60.8105 31.1035C57.1289 27.3965 51.1621 25.1494 44.5986 24.9844C43.4053 24.9463 43.1768 24.9209 43.2148 24.7559C43.2402 24.6543 43.3672 23.7783 43.4941 22.8135C43.7227 21.0742 43.7227 21.0742 44.0527 21.0742C44.5986 21.0742 45.5127 20.4141 45.8174 19.7793C46.0459 19.2842 46.084 18.9922 46.084 17.4687C46.084 15.5898 45.957 15.1201 45.2969 14.5107C44.5605 13.8252 44.751 13.8379 35.4834 13.8379H26.9141L26.9395 10.9561L26.9775 8.08691L30.7861 7.09668C32.8809 6.55078 34.8105 6.00488 35.0771 5.89062C35.9404 5.49707 36.5625 4.5957 36.7529 3.46582C36.9434 2.27246 36.1182 0.749016 34.9756 0.241203C33.998 -0.203133 33.249 -0.0888748 27.8154 1.333ZM34.3662 2.31054C34.5059 2.47558 34.6709 2.72949 34.709 2.88183C34.8232 3.2373 34.4805 3.91015 34.1123 4.0625C33.96 4.13867 32.0684 4.64648 29.8975 5.20507C25.1621 6.43652 25.1621 6.43652 25.0098 6.72851C24.9336 6.86816 24.8828 8.36621 24.8828 10.3975V13.8379H23.7402H22.585L22.623 9.52148C22.6611 5.28125 22.6611 5.20507 22.9404 4.93847C23.1436 4.72265 24.3877 4.35449 28.1455 3.35156C30.8496 2.64062 33.2998 2.05664 33.5918 2.04394C33.9727 2.03125 34.1758 2.10742 34.3662 2.31054ZM43.9004 16.0215C44.002 16.123 44.0527 16.6309 44.0527 17.4687C44.0527 18.6748 44.0273 18.7891 43.7734 18.9668C43.5195 19.1445 42.4404 19.1699 34.5693 19.1699C25.8096 19.1699 25.6445 19.1699 25.3906 19.4238C25.124 19.6904 25.0605 20.2998 25.2637 20.6934C25.5176 21.1758 25.9492 21.2012 33.9092 21.2012C38.1621 21.2012 41.6406 21.2139 41.6406 21.2393C41.6406 21.4551 41.1201 24.9336 41.082 24.9717C41.0566 24.9971 40.3838 25.1113 39.5967 25.2129C33.0332 26.0762 27.4092 29.085 24.6797 33.1982C24.3115 33.7441 24.1084 33.9219 23.626 34.0869C21.5312 34.8232 7.16016 39.6094 7.0459 39.6094C6.95703 39.6094 6.46191 36.3213 5.6748 30.4941C4.98926 25.4922 4.44336 21.3535 4.44336 21.29C4.44336 21.2393 8.29004 21.2012 13 21.2012C21.8105 21.2012 22.2041 21.1758 22.4707 20.6934C22.6738 20.3125 22.6104 19.7412 22.3438 19.4492L22.0771 19.1699H12.2764C3.99902 19.1699 2.4248 19.1445 2.20898 18.9922C1.86621 18.7383 1.77734 16.6562 2.08203 16.1865L2.28516 15.8691H23.0166C38.9746 15.8691 43.7861 15.9072 43.9004 16.0215ZM47.0361 27.1807C54.5391 28.0947 60.3408 31.8018 62.1943 36.9053C62.7402 38.3652 62.9561 39.6094 62.9941 41.3613C63.0195 42.6309 62.9941 42.9355 62.8418 43.0371C62.5371 43.2275 24.5908 43.2021 24.4004 43.0117C24.21 42.8213 24.1973 40.8789 24.3877 39.5205C24.5654 38.1494 25.2383 36.2578 25.9746 35.001C26.7617 33.6807 28.8691 31.5352 30.2783 30.6084C34.6709 27.7393 40.9805 26.4443 47.0361 27.1807ZM22.7119 37.4512C22.1914 39.457 22.0264 42.7197 22.4072 43.6465C22.8008 44.5605 23.7021 45.1826 24.6543 45.1953C25.0732 45.1953 25.1367 45.2461 25.2129 45.5381C25.251 45.7412 25.3398 46.1094 25.416 46.3887C25.4795 46.6553 25.5176 46.8838 25.4922 46.8965C24.21 47.4932 23.7275 47.9248 23.207 48.915C22.9785 49.334 22.9277 49.6641 22.915 50.4766V51.5176L16.0723 53.8789C12.3145 55.1865 9.2168 56.2402 9.2041 56.2148C9.11523 56.1133 7.23633 41.8564 7.2998 41.7803C7.38867 41.6914 22.5723 36.5879 22.8008 36.5752C22.9023 36.5625 22.877 36.8418 22.7119 37.4512ZM59.9727 45.5381C59.7061 46.6299 58.957 47.5693 58.0684 47.9375C57.5098 48.1787 56.2148 48.166 55.6309 47.9121C55.377 47.8105 54.8691 47.5186 54.501 47.2646C53.6758 46.6934 53.168 46.7314 52.4062 47.417C51.1621 48.5469 49.7021 48.6738 48.5088 47.7471C47.0742 46.6299 46.7949 46.5918 45.8809 47.3662C44.3447 48.6484 43.0117 48.6992 41.6279 47.5186C40.5996 46.6426 40.1172 46.6426 39.1143 47.4805C37.7178 48.6611 36.3975 48.6738 35.0391 47.5439C34.7344 47.29 34.3789 47.0234 34.2393 46.9473C33.8584 46.7441 33.2236 46.9092 32.5508 47.3916C31.7637 47.9502 31.2432 48.1152 30.3418 48.1152C29.4658 48.1152 28.4756 47.6582 28.0186 47.0488C27.6504 46.5791 27.2949 45.7793 27.2949 45.4365C27.2949 45.208 27.7393 45.1953 43.6719 45.1953H60.0488L59.9727 45.5381ZM27.3076 49.207C28.3232 49.9434 29.1738 50.1846 30.6719 50.1211C31.8398 50.083 32.043 50.0322 32.8301 49.6387L33.7188 49.1943L34.3281 49.6133C35.7119 50.54 37.6035 50.6543 39.1143 49.918C39.5586 49.7021 40.0156 49.4609 40.1172 49.3721C40.2695 49.2705 40.4727 49.334 41.0439 49.6768C42.4912 50.5527 44.2432 50.6416 45.7158 49.918C46.1602 49.7021 46.6172 49.4609 46.7188 49.3721C46.8711 49.2705 47.0742 49.334 47.6455 49.6768C49.0928 50.5527 50.8447 50.6416 52.3174 49.918C52.7617 49.7021 53.2314 49.4482 53.3457 49.3594C53.5234 49.2324 53.6758 49.2705 54.2344 49.5498C55.2246 50.0449 55.9736 50.1846 57.2305 50.1211C58.4492 50.0576 59.2617 49.7783 60.0869 49.1182C60.6582 48.6484 61.1025 48.6992 61.7754 49.2832C62.7148 50.1084 62.5625 51.5176 61.4453 52.2158L61.001 52.4951H43.5957H26.1904L25.7334 52.1396C24.54 51.2256 24.6162 49.6641 25.8984 48.9912C26.4951 48.6611 26.5967 48.6865 27.3076 49.207ZM24.4512 53.7646C24.7686 54.0059 25.1621 54.2471 25.3398 54.2852C25.6318 54.3613 25.6445 54.3994 25.6445 55.6182V56.875H24.54C23.2705 56.875 22.75 57.0908 22.4072 57.751C22.1025 58.3604 22.1406 61.4834 22.4707 62.3594C22.6104 62.7275 22.7246 63.0449 22.7246 63.0703C22.7246 63.083 20.0459 63.083 16.7705 63.0703C11.0195 63.0322 10.8037 63.0195 10.5371 62.7783C10.3848 62.6387 10.1816 62.3848 10.0928 62.207C9.94043 61.9023 9.43262 58.4365 9.53418 58.3477C9.55957 58.3223 12.7842 57.1924 16.6943 55.8213C20.6045 54.4629 23.8164 53.3457 23.8291 53.333C23.8545 53.333 24.1211 53.5234 24.4512 53.7646ZM59.541 55.6689V56.875H53.2188C46.3379 56.875 46.4648 56.8623 46.2871 57.5859C46.1729 58.043 46.4014 58.5889 46.7949 58.7666C47.0234 58.8682 49.4355 58.9062 55.0977 58.9062H63.0957V59.7949C63.0957 61.7754 62.5879 62.6895 61.3184 62.9561C60.5312 63.1211 26.9141 63.1465 26.0381 62.9814C25.4287 62.8545 24.9717 62.5625 24.5781 62.0293C24.3496 61.7373 24.2988 61.458 24.2734 60.29L24.2227 58.9062H33.7061H43.1768L43.4814 58.5889C43.6846 58.3984 43.7988 58.1318 43.7988 57.8906C43.7988 57.6494 43.6846 57.3828 43.4814 57.1924L43.1768 56.875H35.4199H27.6758V55.6689V54.4629H43.6084H59.541V55.6689Z" fill="#FD9900"/>
<path d="M39.9268 29.6434C39.7236 29.8339 39.6094 30.1005 39.6094 30.3417C39.6094 30.5829 39.7236 30.8495 39.9268 31.0399C40.5615 31.6874 41.6406 31.2304 41.6406 30.3036C41.6406 29.4149 40.5615 28.996 39.9268 29.6434Z" fill="#FD9900"/>
<path d="M45.9443 29.5674C45.7158 29.7451 45.6396 29.9355 45.6396 30.3418C45.6396 30.748 45.7158 30.9385 45.9443 31.1162C46.6172 31.6621 47.6074 31.1797 47.6074 30.3037C47.6074 29.4658 46.6172 29.0215 45.9443 29.5674Z" fill="#FD9900"/>
<path d="M30.8622 34.2266C30.5194 34.671 30.5321 35.0772 30.9002 35.4962C31.535 36.2452 32.6268 35.8136 32.6268 34.836C32.6268 34.2393 32.2586 33.8966 31.6239 33.8966C31.2303 33.8966 31.0653 33.9727 30.8622 34.2266Z" fill="#FD9900"/>
<path d="M36.9687 34.0996C36.7529 34.252 36.6895 34.417 36.6895 34.8359C36.6895 35.5088 37.0195 35.8516 37.6416 35.8516C37.8828 35.8516 38.1875 35.75 38.3398 35.6104C38.6826 35.293 38.6826 34.4932 38.3398 34.1504C38.0352 33.8457 37.3623 33.8203 36.9687 34.0996Z" fill="#FD9900"/>
<path d="M42.9105 34.1504C42.5931 34.4678 42.5804 35.166 42.8978 35.5596C43.0628 35.7754 43.266 35.8516 43.6087 35.8516C44.5609 35.8516 45.0179 34.7217 44.2943 34.1123C43.9261 33.8203 43.2279 33.833 42.9105 34.1504Z" fill="#FD9900"/>
<path d="M48.9024 34.1885C48.3692 34.7471 48.6358 35.6993 49.3721 35.8643C50.2989 36.0674 50.9971 35.0518 50.4385 34.3028C50.083 33.8204 49.2959 33.7696 48.9024 34.1885Z" fill="#FD9900"/>
<path d="M54.856 34.2266C54.4117 34.7979 54.5259 35.4326 55.1226 35.75C55.859 36.1309 56.6207 35.6739 56.6207 34.8487C56.6207 33.96 55.4019 33.541 54.856 34.2266Z" fill="#FD9900"/>
<path d="M27.9294 38.7208C27.6628 38.9874 27.5993 39.5968 27.8025 39.9903C27.9675 40.3077 28.6277 40.5108 28.9958 40.3712C29.364 40.2315 29.7068 39.7745 29.7068 39.4063C29.7068 39.254 29.5925 38.9874 29.4402 38.797C29.1101 38.378 28.323 38.3272 27.9294 38.7208Z" fill="#FD9900"/>
<path d="M33.9219 38.7589C33.2109 39.5206 34.0234 40.7393 35.001 40.3585C35.6865 40.1046 35.8769 39.3936 35.4072 38.7969C35.0644 38.3526 34.3154 38.3399 33.9219 38.7589Z" fill="#FD9900"/>
<path d="M39.8759 38.7969C39.5585 39.2031 39.5331 39.584 39.8124 39.9648C40.0917 40.3711 40.536 40.5107 41.0058 40.3584C41.4501 40.1933 41.6405 39.914 41.6405 39.3935C41.6405 38.5049 40.4218 38.0986 39.8759 38.7969Z" fill="#FD9900"/>
<path d="M45.9189 38.6953C45.2714 39.4063 45.7284 40.4346 46.6679 40.4092C47.0107 40.3965 47.2265 40.3076 47.3788 40.1172C47.6835 39.7364 47.6708 39.0381 47.3534 38.7207C47.0234 38.3907 46.2109 38.378 45.9189 38.6953Z" fill="#FD9900"/>
<path d="M51.8728 38.7079C51.5554 39.0634 51.5808 39.8251 51.9109 40.1552C52.2409 40.498 52.9646 40.5107 53.32 40.1806C53.6628 39.8632 53.6628 39.0634 53.32 38.7206C52.9773 38.3778 52.1775 38.3778 51.8728 38.7079Z" fill="#FD9900"/>
<path d="M57.8907 38.7206C57.5733 39.038 57.5606 39.7363 57.8653 40.1171C58.1827 40.498 58.9444 40.5234 59.3126 40.1425C59.6681 39.7997 59.6808 39.0888 59.3507 38.7206C59.0333 38.3779 58.2335 38.3779 57.8907 38.7206Z" fill="#FD9900"/>
</g>
<defs>
<clipPath id="clip0_1666_2246">
<rect width="65" height="65" fill="white"/>
</clipPath>
</defs>
</svg>