<svg xmlns="http://www.w3.org/2000/svg" width="92" height="140" viewBox="0 0 92 140" fill="none">
<g opacity="0.1" clip-path="url(#clip0_2046_1851)">
<path d="M82.5804 46.5558C82.805 44.9143 81.0287 43.5787 79.7987 42.5549C81.1702 41.4825 82.7735 40.1216 82.6655 38.7874C82.6217 38.1324 82.2937 37.8522 81.8185 37.4467C80.9352 36.6957 80.0179 36.1318 79.1868 35.4031C80.0335 34.5092 80.9512 33.6302 81.8556 32.8542C82.3901 32.4005 83.1782 32.0401 83.4181 31.3361C84.1156 29.2765 80.2757 27.708 79.1181 26.948C77.5895 25.9358 75.3988 23.4761 73.4675 24.5567C72.2703 25.2228 71.5664 26.6124 70.7735 27.669C69.9264 28.7799 69.0122 29.8311 68.1184 30.9065C67.3314 30.6157 66.4659 30.3998 65.813 30.2286C66.6416 29.0166 67.4851 27.842 68.3677 26.6842C69.1251 25.6745 70.1976 24.8308 70.8692 23.7688C71.9861 22.0286 70.1141 21.0244 68.7679 20.3077C67.5466 19.66 66.4711 18.8886 65.2965 18.1679C64.6962 17.8019 64.1461 17.535 63.4699 17.9589C62.7377 18.4054 62.2187 19.688 61.7474 20.3549C61.2761 21.0218 60.867 22.4447 60.284 22.9396L60.2784 22.9527C60.1013 22.8612 59.9055 22.7773 59.704 22.7065C58.5888 22.2439 57.739 21.5227 56.8219 20.8503C57.2903 19.6856 58.4342 18.5312 59.1822 17.5794C59.775 16.8094 61.053 15.7746 61.0025 14.6668C60.9253 12.7562 57.5741 11.3816 56.1196 10.665C54.8684 10.0511 53.7764 9.1019 52.5457 8.51225C51.9042 8.20624 51.2753 8.23145 50.6533 8.60099C49.6129 9.22564 49.1835 10.5157 48.6948 11.5475C48.3203 12.349 47.8096 13.1077 47.6478 13.9538C46.7006 13.4236 45.6193 12.7739 44.5284 12.2907C45.0659 11.1091 46.0323 10.0803 46.3048 8.83166C46.4101 8.33371 46.295 7.98953 45.926 7.66067C44.9888 6.74685 43.218 6.62395 42.0336 6.28688C40.5638 5.85851 39.0402 5.15885 37.5046 5.02813C35.0212 4.80143 34.3213 8.3806 33.6708 10.2586C33.4908 10.7866 33.2978 11.309 33.1047 11.8314C31.3674 10.6211 28.8793 10.982 28.1218 13.2176C27.383 15.4457 27.2092 17.978 26.6905 20.2693C26.4519 21.3308 26.0768 22.4579 25.9556 23.5697C25.5151 23.6602 25.1116 23.9527 24.9709 24.3889C22.8916 30.5732 19.2907 35.9811 16.8533 42.0274C15.7666 44.7425 14.5589 47.3436 13.6867 50.1352C13.5085 50.695 13.3434 51.2604 13.1783 51.8258C11.0442 56.047 8.9232 60.2738 6.82829 64.5118C1.04712 76.2314 -4.26411 88.1525 -9.72636 99.9932C-10.9566 102.647 -12.362 105.132 -13.2659 107.926C-13.8622 109.749 -15.0611 112.618 -13.8361 114.447C-12.7153 116.122 -10.8337 115.734 -9.32641 114.921C-6.35488 113.324 -3.45553 111.355 -0.653354 109.469C10.886 101.692 22.295 93.7501 33.5626 85.5618C39.7859 81.0298 46.0688 76.5389 52.1468 71.8049C55.2073 69.4239 58.4335 67.2691 61.4865 64.8694C64.1136 62.8146 67.2442 60.8826 69.4912 58.4167C69.8988 57.9707 69.797 57.415 69.486 56.9869C70.5544 56.4053 71.5522 55.5916 72.4564 54.9241C74.7115 53.2685 76.9888 51.669 79.2382 50.0264C80.3499 49.1996 82.3708 48.1263 82.5804 46.5558ZM78.256 37.5023C78.6846 37.8722 79.2608 38.1502 79.6465 38.5483C80.4252 39.3632 80.3459 38.7551 79.7903 39.6186C78.6978 41.3381 76.3758 42.8254 74.9738 44.3657C71.0911 48.6287 66.3776 51.9458 62.1018 55.792C59.8609 55.5762 57.6425 55.308 55.3817 54.7422C55.3686 54.7366 55.3686 54.7366 55.3556 54.731C55.3612 54.7179 55.3855 54.6973 55.3911 54.6842C59.09 50.9941 63.2417 47.762 66.7841 43.8962C68.5226 42.0036 70.2778 40.1802 72.1187 38.4092C72.9579 37.6051 73.8063 36.8516 74.6939 36.1149C74.9555 35.9012 75.6061 35.1405 75.8954 35.0783C76.5806 34.922 75.9964 34.9509 76.5237 35.4873C76.5703 35.5228 76.5982 35.5658 76.6261 35.6088C76.5283 36.1254 76.9234 36.4655 77.3991 36.5453C77.6673 36.893 77.9336 37.2089 78.256 37.5023ZM74.4898 25.957C75.0815 25.8383 77.1759 27.8378 77.7146 28.2394C78.7248 28.9828 79.7162 29.8423 80.8144 30.4527C80.8871 30.4994 81.191 30.6917 81.4075 30.6914C81.1814 30.8583 80.8359 31.0515 80.763 31.1134C79.8138 31.8858 78.6684 32.7913 77.7785 33.8218C77.0354 32.8516 76.3869 32.3098 75.1092 33.1275C72.7629 34.6354 70.572 37.0789 68.6355 39.0728C65.2261 42.5921 61.9509 46.2311 58.616 49.8289C61.0815 46.0601 63.534 42.2857 66.3743 38.7241C67.4794 37.3358 70.4149 34.8857 70.2576 32.9097C70.2211 32.382 69.9232 31.9595 69.4908 31.6345C70.4433 31.1428 71.2563 30.3276 71.9089 29.4902C72.4232 28.7951 73.5509 26.1286 74.4898 25.957ZM66.3749 32.4866C67.9098 33.0515 68.3036 33.0341 67.3645 34.4315C65.8906 36.6082 64.1855 38.6392 62.5848 40.715C59.2543 45.0596 56.5615 49.7551 53.4156 54.2097C51.7518 53.7293 50.0639 53.1608 48.4153 52.5006C49.3162 51.5524 51.8209 47.8004 52.1539 47.276C53.6656 44.8672 55.2108 42.4883 56.6497 40.0328C57.8099 38.0474 58.8507 35.9799 59.7945 33.8863C60.0998 33.2103 60.7816 30.4303 61.4181 30.3152C61.7205 30.2586 63.1222 31.2785 63.54 31.4575C64.4556 31.8811 65.4255 32.1417 66.3749 32.4866ZM61.4663 25.805C62.0112 24.642 61.7809 23.9537 61.1342 23.4437C61.9877 23.0027 62.6069 22.0268 63.2108 21.3391C63.3603 21.1705 64.5156 19.8813 64.2658 19.7432C64.7321 19.881 66.5271 21.2091 66.79 21.3528C67.4202 21.6851 68.5842 21.9978 69.0331 22.5006C69.482 23.0034 69.7405 22.4004 68.9478 23.3485C68.6561 23.7045 68.2712 23.9895 67.9591 24.3212C66.501 25.884 65.2199 27.6468 64.0023 29.4058C62.7868 28.6365 61.5305 27.71 60.2453 28.509C59.4832 28.9892 59.0746 30.0864 58.7244 30.8673C58.0858 32.2849 57.4398 33.6838 56.749 35.079C53.8735 40.8133 49.6702 46.0405 47.3392 52.0549C45.6422 51.3274 43.9901 50.4951 42.4651 49.5465C43.0655 48.6867 44.0543 47.714 44.4563 47.1726C45.7467 45.4603 47.0649 43.791 48.3292 42.0675C50.7229 38.8265 53.3479 35.7312 55.915 32.6267C57.6856 30.5151 60.3109 28.3199 61.4663 25.805ZM53.8472 23.2836C54.023 23.0176 54.5043 21.967 54.8257 21.6859C54.6704 21.9762 56.3723 23.1247 55.8598 22.7343C56.7041 23.3601 57.5506 23.8005 58.5054 24.2408C59.8331 24.8566 59.6236 25.2012 58.7355 26.2636C57.967 27.191 57.1706 28.0754 56.4022 29.0029C54.297 31.4986 52.2384 34.0298 50.1928 36.5666C48.0107 39.2776 45.9815 42.1007 43.7734 44.8006C42.9824 45.7804 41.6629 47.0923 40.8564 48.4689C39.2608 47.2884 37.8727 45.9485 36.649 44.4774C37.3502 43.5987 38.3478 42.8937 39.0713 42.0711C39.9799 41.0331 40.8531 39.9333 41.6685 38.8243C43.6154 36.121 45.7672 33.6608 47.9415 31.1482C50.1102 28.6486 52.0103 26.0185 53.8472 23.2836ZM51.9775 10.2703C52.3863 10.1818 53.6069 11.2637 54.0786 11.4969C55.4473 12.1612 56.7489 12.7658 58.0259 13.608C59.6272 14.6669 58.6633 15.2933 57.6742 16.483C56.8459 17.4779 55.9169 18.4917 55.2545 19.6042C55.219 19.6511 55.1965 19.7035 55.1684 19.769C54.8346 19.6104 54.5342 19.5903 54.0449 19.8305C53.1597 20.2734 52.4835 21.8145 51.9412 22.5751C50.7928 24.2086 49.65 25.829 48.4215 27.3971C46.0748 30.3479 43.264 32.9756 41.0645 36.0516C40.8345 36.372 40.6231 36.6848 40.3931 37.0051C42.1773 33.3477 43.9671 29.6772 46.1317 26.2138C47.8062 23.5335 49.9364 20.583 50.8631 17.52C51.349 15.8818 50.4057 15.3067 49.1862 14.6908C49.4982 14.4677 49.7674 14.1642 50.0348 13.8288C50.3995 13.3024 51.55 10.3664 51.9775 10.2703ZM42.8033 13.9718C44.6337 14.1358 46.874 15.903 48.5019 16.6475C49.5089 17.1102 49.1923 16.6952 49.0437 17.4383C48.7656 18.7001 47.6748 20.4514 47.0871 21.5339C45.6292 24.214 43.8151 26.6793 42.2714 29.3071C39.736 33.6356 37.7673 38.3001 35.3045 42.6753C33.9044 40.6785 32.762 38.513 31.7541 36.25C32.3117 35.3097 32.9837 34.0306 33.0062 33.9781C33.6428 32.6373 34.2011 31.2629 34.8377 29.922C36.0286 27.3602 37.2364 24.7591 38.1923 22.0966C38.8615 20.2111 40.249 13.7302 42.8033 13.9718ZM38.6354 7.43696C39.557 7.6303 40.4372 7.99213 41.3381 8.26971C41.6683 8.36469 44.2946 9.08713 44.1757 8.78786C44.3857 9.34338 43.0882 10.8199 42.6987 11.6925C42.5569 11.6628 42.4021 11.6275 42.2491 11.6239C39.9819 11.5055 39.1182 13.6644 38.3223 15.449C36.8671 18.7355 35.8091 22.1767 34.4584 25.5078C33.2688 28.4271 31.9149 31.369 30.9546 34.4021C30.1832 32.4887 29.4921 30.5321 28.8271 28.5868C29.1398 27.9295 29.4842 27.2702 29.7112 26.5606C30.2569 24.855 30.7187 23.1289 31.3484 21.4437C32.5815 18.1707 34.2024 15.1105 35.305 11.7815C35.7081 10.5888 36.1137 8.99379 36.8636 7.96532C37.5612 7.02301 37.2885 7.15439 38.6354 7.43696ZM29.6269 14.9335C30.2013 12.8367 30.9791 13.077 32.3478 13.7413C31.2836 16.404 30.1541 19.0387 29.3026 21.746C28.8337 23.2363 28.4432 24.7602 28.0526 26.2841C27.852 25.6706 27.6384 25.0514 27.4322 24.451C28.2767 22.6251 28.5512 20.1825 28.9833 18.3816C29.2557 17.2415 29.3341 16.0493 29.6269 14.9335ZM5.98206 101.56C0.622616 105.05 -4.5954 108.787 -10.1634 111.971C-11.6371 112.813 -11.22 112.201 -10.8912 110.821C-10.5418 109.357 -10.0412 107.865 -9.48469 106.459C-8.45422 103.875 -7.0974 101.431 -6.06694 98.8465C-1.66957 87.7596 3.34713 76.814 8.44379 66.0423C9.39871 64.031 10.3536 62.0198 11.3011 59.9898C11.4262 59.9503 11.5364 59.8734 11.6038 59.7161C12.0327 58.7517 12.4224 57.7706 12.7935 56.7969C16.2125 49.5421 19.5532 42.2538 22.7821 34.902C23.9293 32.8025 25.071 30.7161 26.0616 28.5495C26.3068 29.2752 26.5463 30.0141 26.7915 30.7399C26.3639 32.0617 25.8785 33.3743 25.4976 34.7316C24.8782 36.9333 24.5874 39.0896 24.2125 41.334C23.2289 47.3053 22.3481 53.181 22.0773 59.256C21.8395 64.4609 21.523 69.8492 22.7634 74.9583C23.3289 77.28 23.857 79.6167 24.4598 81.9233C24.9829 83.9475 25.6778 85.8591 26.3259 87.8438C19.621 92.5262 12.8397 97.0983 5.98206 101.56ZM60.6824 62.3834C58.1749 64.4118 55.5761 66.2925 52.9997 68.2293C47.914 72.0542 42.8526 75.8584 37.7316 79.6216C34.5051 81.9935 31.2636 84.328 28.0017 86.6381C26.642 82.6726 25.3773 78.8098 24.6282 74.6095C23.6442 69.0827 24.2171 63.1681 24.3883 57.5779C24.569 51.9296 25.4567 46.3983 25.9452 40.7889C26.1732 38.2022 26.6101 35.7051 27.2299 33.1778C27.2807 32.9513 27.3388 32.7435 27.397 32.5356C30.0239 39.9616 33.4259 47.0215 40.4672 51.4675C44.5555 54.0425 49.4027 55.8566 54.0606 57.031C57.9294 57.9912 61.6723 58.3079 65.5458 58.6805C63.9781 59.9945 62.1922 61.1686 60.6824 62.3834ZM74.6594 50.7945C72.6138 52.2141 70.5998 53.6317 68.5132 55.0027C67.9061 55.4096 67.3626 55.7042 67.0296 56.2287C66.2608 56.1474 65.4865 56.0792 64.7252 56.0167C66.8069 54.2247 68.9706 52.5298 71.0187 50.7079C73.5528 48.4736 75.8389 46.0244 78.3189 43.7359C78.446 43.6197 78.5973 43.4829 78.7748 43.3573C78.8695 43.6772 79.0071 43.9689 79.2249 44.326C79.8987 45.4218 80.6502 45.7594 79.8607 46.9882C78.8655 48.5167 76.154 49.7594 74.6594 50.7945Z" fill="#FD9900"/>
</g>
<defs>
<clipPath id="clip0_2046_1851">
<rect width="64.0977" height="124.033" fill="white" transform="translate(32.8701 0.0153809) rotate(23.204)"/>
</clipPath>
</defs>
</svg>