<svg xmlns="http://www.w3.org/2000/svg" width="127" height="163" viewBox="0 0 127 163" fill="none">
<path opacity="0.2" d="M-23.4473 63.3502C-23.4473 63.3502 -34.2973 49.0809 -28.9253 31.7163C-23.5533 14.3517 -8.6697 1.46499 10.4821 1.26981C29.1035 1.07905 43.2465 9.45341 49.703 20.3304C55.9562 30.8765 52.1976 48.4651 52.1976 48.4651M87.1614 63.9334C87.1614 63.9334 89.4861 57.3559 100.932 55.9625C115.575 54.1803 125.4 69.7684 125.4 69.7684C117.138 67.1788 112.877 78.1244 106.105 85.8709C99.3327 93.6174 86.6766 87.5091 81.4271 82.2177C76.1777 76.9263 75.6259 68.5613 78.7299 64.4817C81.4247 60.9391 87.6565 66.0243 82.9069 69.5853C75.8378 74.8844 64.8498 69.4816 64.4416 37.4643C64.0333 5.44699 98.9531 4.21395 98.9531 4.21395C98.9531 4.21395 95.5469 7.98724 95.3352 18.7582C95.1274 29.5301 98.1596 27.8942 95.4889 40.2615C92.8143 52.6278 74.008 62.7799 74.008 62.7799M74.0119 62.7809C74.0119 62.7809 70.0913 20.2102 82.1286 17.0688C94.166 13.9275 69.33 44.4418 69.33 44.4418M86.8565 77.2939C86.8565 77.2939 102.993 68.3548 106.019 67.4664C109.045 66.5781 112.741 70.0659 109.996 72.564C107.246 75.0651 92.324 67.5646 92.324 67.5646M79.4225 42.8587C79.4225 42.8587 82.4401 36.8118 87.9845 33.4082M-30.3894 140.076C-39.0772 128.784 -43.8125 106.954 -35.1004 84.3173C-26.3882 61.6805 -13.2748 49.9894 5.59725 45.1287C24.4703 40.2641 57.077 50.1913 67.4931 62.7139C77.9141 75.2336 90.8912 95.2323 81.8867 125.108C73.2242 153.853 48.5875 170.929 19.7947 169.904C-5.77655 168.993 -21.6986 151.373 -30.3894 140.076ZM4.94327 123.158C5.22505 125.631 10.2051 127.615 11.7416 124.935C13.2821 122.257 12.4542 117.936 9.91661 118.018C7.38193 118.104 4.60508 120.178 4.94327 123.158ZM6.75029 62.8903C5.05131 61.3391 1.11905 62.8828 1.96159 65.6371C2.8031 68.3953 5.95235 70.9066 7.27103 69.3657C8.59073 67.8207 8.79863 64.7602 6.75029 62.8903ZM25.3021 125.4C27.068 126.872 30.9243 125.152 29.9581 122.437C28.9919 119.722 25.7336 117.355 24.4872 118.957C23.2418 120.555 23.1738 123.627 25.3021 125.4ZM-3.91428 16.0686C-3.45198 17.1282 8.45852 17.38 8.52726 20.475C8.596 23.5699 5.29145 23.0342 5.2412 21.5394C5.19489 20.0457 15.8985 16.7197 15.8461 15.4096C15.7978 14.1005 3.07652 12.5633 4.07527 10.1894C5.07112 7.81057 8.09012 8.49049 7.86324 10.0812C7.63345 11.667 -4.37658 15.0091 -3.91428 16.0686ZM-13.2579 71.6464C-6.27296 70.3326 27.9055 99.1031 21.0292 102.508C14.1568 105.914 -6.08583 66.0501 -3.03145 60.0718C0.0229314 54.0935 30.4441 48.2157 34.001 55.5944C37.558 62.973 29.8076 105.388 25.5826 103.505C21.3576 101.621 32.2105 61.5748 39.3576 60.8296C46.5047 60.0843 50.4209 61.6386 57.2284 67.2532C64.0359 72.8677 73.1114 79.753 69.0937 87.8409C65.0772 95.9249 31.4151 110.695 29.6267 104.907C27.8383 99.1192 64.1612 93.9975 72.156 100.903C78.8219 106.658 73.0443 138.106 60.6899 137.961C46.2418 137.791 26.1092 112.705 28.5482 110.076C30.9872 107.448 57.1435 133.418 52.2719 146.7C47.3964 159.981 21.8464 160.161 14.0102 154.497C6.17402 148.832 18.9102 110.869 23.2635 111.073C27.6129 111.276 6.64867 150.021 1.00772 151.931C-4.63322 153.84 -30.315 131.967 -24.9052 119.31C-19.4955 106.653 19.7516 101.883 20.7706 106.309C21.7895 110.734 -22.0394 117.829 -27.5082 107.399C-32.977 96.97 -22.8747 73.4507 -13.2579 71.6464Z" stroke="white" stroke-miterlimit="10"/>
</svg>