<svg xmlns="http://www.w3.org/2000/svg" width="64" height="103" viewBox="0 0 64 103" fill="none">
  <g opacity="0.1" clip-path="url(#clip0_1865_2913)">
    <path d="M53.9137 21.1628C51.0751 20.0588 47.9055 19.6236 44.8759 19.9794C41.3866 20.3902 38.3213 21.326 35.1831 22.9503C34.4072 23.3503 33.3057 24.2508 32.4213 24.3363C31.3879 24.4389 31.136 23.8343 30.6034 22.9947C29.4462 21.149 28.3236 19.2789 27.3179 17.332C26.4927 15.7057 25.7921 14.0281 24.9797 12.398C24.5857 11.6001 24.2613 10.6146 23.2953 10.3359C21.3632 9.77841 19.4115 13.3923 18.6868 14.7072C17.4084 17.0217 18.0032 19.0922 19.2819 21.2486C20.1907 22.7803 21.3243 24.1749 22.3976 25.6017C23.1378 26.5731 24.2487 27.7525 24.9194 28.9115C24.4276 29.0455 23.7612 29.2043 23.4888 29.3695C22.8837 29.732 22.3811 30.2025 21.9361 30.7251C21.3821 31.2111 20.8793 31.8206 20.3352 32.5257C19.6188 33.4493 18.919 34.3818 18.2526 35.332C17.9735 35.7076 17.7239 36.0881 17.4781 36.4814C16.818 37.4992 16.204 38.5308 15.6645 39.6234C13.1894 44.6166 11.9005 50.2944 12.0108 55.8291C12.0335 56.8359 11.9957 58.8051 13.424 58.9448C14.0746 59.0129 14.6414 58.5231 15.0801 57.9329C15.4286 60.6745 16.6239 63.578 17.6408 65.702C19.6044 69.7629 22.8591 73.0883 26.1309 76.1448C33.4972 83.0378 42.4077 87.5224 52.2861 89.5915C56.4843 90.4671 61.5748 91.9352 65.7681 90.3269C69.6314 88.8317 72.1835 84.6067 73.5064 80.9042C76.6538 72.1403 75.4418 62.105 72.907 53.3978C71.3193 47.9326 69.3152 42.7592 66.5329 37.7921C64.2524 33.7016 61.5571 29.722 58.0364 26.6293C58.5113 26.6253 58.9709 26.5704 59.4203 26.4352C59.8954 26.2923 60.0646 25.6444 59.8869 25.2396C59.0558 23.268 55.7428 21.8901 53.9137 21.1628ZM68.5248 48.0927C71.3525 55.8648 73.5039 64.368 72.5585 72.6778C72.0558 77.1056 71.2364 81.3648 68.3863 84.9713C66.7644 87.0281 65.027 88.3282 62.3032 88.3976C60.288 88.4483 58.2143 88.2112 56.2331 87.8629C52.018 87.1173 47.7837 86.3081 43.8178 84.6684C39.689 82.9527 35.8224 80.9916 32.1764 78.367C28.1445 75.4836 24.2383 71.8543 21.258 67.9048C19.7865 65.9453 18.654 63.856 17.7823 61.5633C17.1919 60.0192 16.3543 58.119 15.9671 56.3193C17.2965 53.3368 18.45 50.4212 20.3143 47.6805C21.1506 46.457 22.0202 45.2513 22.9065 44.0545C22.8776 45.2156 22.9335 46.379 22.9716 47.4367C23.0625 49.8809 22.8208 54.1052 25.1054 55.6952C25.64 56.0759 26.3192 55.9133 26.7205 55.4316C28.6906 53.0895 28.9468 49.4718 29.4765 46.5771C29.7861 44.8595 30.0995 43.1546 30.468 41.4469C30.5365 41.1625 30.6751 40.4127 30.8188 39.6336C31.4106 41.1356 32.0962 42.6234 32.7355 44.0973C33.5947 46.116 34.2956 48.4462 36.1481 49.7635C36.7737 50.214 37.5431 49.8854 37.856 49.2498C38.7639 47.38 37.8621 44.7076 37.4353 42.8226C37.239 41.9375 34.9464 35.8512 35.251 35.6068C35.6121 35.3177 38.2189 36.908 38.6151 37.1082C39.9617 37.814 41.2812 38.5696 42.5878 39.329C44.2151 40.2697 46.1901 41.9945 48.0609 42.3482C48.8026 42.4862 49.4086 41.568 49.09 40.9279C47.9578 38.6997 46.2846 36.8148 44.7232 34.8823C43.8714 33.8194 42.981 32.7681 42.1292 31.7052C41.7706 31.2577 41.3106 30.799 40.8891 30.3287C43.118 30.6164 45.3312 31.131 47.5253 31.5818C50.1826 32.1295 52.7616 33.3949 55.4398 33.6862C56.2342 33.7667 56.8995 32.7196 56.305 32.0931C54.7097 30.4207 52.693 29.0695 50.847 27.6808C49.5766 26.7161 47.8617 25.9961 46.4848 25.0495C48.58 24.7526 51.4654 25.4537 53.131 25.7303C53.7931 25.8367 54.4782 26.0194 55.189 26.1944C60.8569 32.5152 65.6358 40.1169 68.5248 48.0927ZM54.9545 24.3905C53.3903 24.125 51.8351 23.843 50.2593 23.6782C48.4511 23.4862 46.0158 23.0245 44.3342 23.9052C43.864 24.1577 43.5973 24.8072 44.0073 25.2393C45.2155 26.556 47.1356 27.3531 48.5675 28.4358C49.6559 29.261 50.8328 30.1011 51.9788 30.9783C50.5381 30.5646 49.1116 30.105 47.6873 29.8392C44.8721 29.3251 41.9982 28.6622 39.1544 28.379C38.4781 28.3186 38.0149 29.0133 38.2629 29.6052C39.0147 31.4063 40.8203 33.1264 42.0346 34.6496C43.0939 35.9833 44.2802 37.3204 45.3201 38.7294C45.0047 38.5188 44.7098 38.3298 44.4598 38.1967C42.985 37.3906 41.5103 36.5845 39.9996 35.8448C38.4183 35.0569 35.2976 32.9685 33.5309 34.1247C33.2752 34.2988 33.2054 34.6253 33.2216 34.912C33.3554 37.0795 34.4196 39.3142 34.9411 41.4206C35.2421 42.6075 35.8742 44.5696 36.0191 46.2616C35.3164 45.0428 34.8336 43.5774 34.3105 42.4434C33.4076 40.4656 32.3648 38.4882 31.7971 36.368C31.6274 35.7108 31.0491 35.371 30.38 35.6139C29.621 35.8839 29.4892 36.4234 29.275 37.1543C28.7949 38.7705 28.5263 40.5314 28.1591 42.1969C27.4789 45.2896 27.3394 49.7609 25.7249 52.7735C25.0451 50.9785 25.1388 47.7985 25.0805 46.5802C24.9888 44.5528 24.7072 41.7078 25.9499 39.9733C26.6999 38.9285 25.0923 37.7736 24.3295 38.8223C21.8326 42.253 19.1201 45.6654 17.0963 49.4121C16.1899 51.1009 15.3374 52.8292 14.6696 54.6129C14.5367 55.0555 14.3871 55.4893 14.2209 55.9142C13.5475 57.2137 13.4447 57.2446 13.9203 56.0324C13.8564 55.1213 13.8784 54.1705 13.9249 53.254C14.1344 49.1088 15.3979 44.8827 16.9585 41.0392C17.5564 39.582 18.2954 38.2211 19.0972 36.8831C20.0218 35.8135 21.0207 34.805 22.012 33.7709C23.2488 32.4825 24.0808 31.5241 25.789 30.8715C26.4799 30.6082 26.7174 30.6062 27.2355 30.0477C27.503 29.7728 27.4807 29.2797 27.3554 28.9563C26.4822 26.8446 24.2958 24.8363 22.856 23.0755C21.8569 21.8487 20.6949 20.5459 20.0594 19.0847C19.2538 17.2443 19.7318 16.0869 20.7626 14.4856C21.4008 13.4883 22.2589 11.4529 23.3773 12.7966C24.2304 13.8174 24.6215 15.6298 25.1676 16.8402C26.4503 19.6618 28.0041 22.3603 29.563 25.0294C30.4385 26.5434 31.1001 26.9275 32.8004 26.3884C35.9055 25.3989 38.4889 23.2334 41.7412 22.5468C44.6134 21.9467 47.5401 21.7607 50.431 22.2936C51.8847 22.5645 53.3241 23.0202 54.6553 23.6751C55.0811 23.8803 56.0584 24.3361 56.8816 24.8383C56.217 24.6772 55.5152 24.4856 54.9545 24.3905Z" fill="#FFFFFF"/>
    <path d="M30.5836 60.9204C30.2489 60.785 29.7483 60.7968 29.4207 60.9647C29.0289 61.152 28.7949 61.4445 28.6043 61.8351C28.3326 62.375 28.4303 63.026 28.7671 63.494C28.8446 63.9844 29.1134 64.459 29.516 64.7266C30.325 65.2748 31.4331 64.9553 31.7889 64.043C31.9732 63.5849 31.9856 63.0675 31.8567 62.5925C31.6679 61.8717 31.3199 61.2266 30.5836 60.9204Z" fill="#FFFFFF"/>
    <path d="M38.2727 58.3164C37.6025 58.4624 37.0305 58.9816 36.9651 59.6955C36.8919 60.5228 37.2373 61.2521 37.891 61.7497C38.4204 62.1597 39.3326 62.3991 39.9506 62.0327C40.4735 61.7227 40.7502 61.2924 40.6896 60.6719C40.6693 60.5114 40.6477 60.3929 40.5684 60.2224C40.5287 60.1371 40.4762 60.0557 40.4276 59.987C40.4086 59.7845 40.3602 59.5769 40.2937 59.4025C39.9536 58.6439 39.1265 58.129 38.2727 58.3164Z" fill="#FFFFFF"/>
    <path d="M47.8497 53.9363C46.7987 53.7942 45.8173 55.0474 46.3459 56.0132C46.3702 56.0475 46.3945 56.0818 46.4098 56.1328C46.169 56.6356 46.2643 57.2318 46.7746 57.5782C47.2848 57.9246 48.0114 57.8727 48.5573 57.6391C49.3613 57.2861 49.7247 56.3993 49.5181 55.5728C49.3077 54.7335 48.7364 54.0445 47.8497 53.9363Z" fill="#FFFFFF"/>
    <path d="M56.6102 45.6779C56.3422 45.5781 56.0714 45.5623 55.7902 45.6052C55.509 45.6481 55.2637 45.7636 55.0375 45.9427C54.6198 46.2766 54.3326 46.9045 54.4549 47.4509C54.4765 47.5693 54.5238 47.6801 54.5711 47.7908C54.5376 47.912 54.5207 48.042 54.5371 48.1898C54.6984 49.2382 55.9251 49.4524 56.7715 49.1007C57.3816 48.8478 57.8793 48.2676 57.9432 47.5958C57.9876 47.1381 57.8254 46.6454 57.5231 46.292C57.3028 46.025 56.9592 45.7674 56.6102 45.6779Z" fill="#FFFFFF"/>
    <path d="M57.4719 55.6659C57.218 55.5201 57.0013 55.4048 56.728 55.3342C56.2186 55.2236 55.7653 55.3461 55.3362 55.6418C54.907 55.9375 54.6788 56.5754 54.7768 57.0874C54.777 56.9485 54.7682 56.8262 54.7684 56.6873C54.7515 56.8173 54.7513 56.9562 54.7768 57.0874C54.8252 57.295 54.8917 57.4694 55.0043 57.6577C55.2052 57.9999 55.4796 58.1673 55.8297 58.3536C55.3629 58.1052 55.6412 58.2854 55.8489 58.4173C55.9 58.5407 55.9512 58.6642 56.0408 58.7761C56.6362 59.6384 57.9558 59.6025 58.5514 58.743C59.1072 57.9371 58.8418 56.9617 58.2538 56.2638C58.0245 56.0134 57.7553 55.8167 57.4719 55.6659Z" fill="#FFFFFF"/>
    <path d="M49.1766 64.7283C48.129 64.0853 46.5838 64.0225 46.0361 65.3674C45.5438 66.5707 46.5923 68.2409 47.9271 68.256C48.2492 68.2563 48.5189 68.1752 48.7476 68.0509C49.1452 68.209 49.5521 68.2116 49.9479 67.8981C50.3784 67.5604 50.5269 67.0297 50.4379 66.5011C50.3262 65.7571 49.8125 65.1202 49.1766 64.7283Z" fill="#FFFFFF"/>
    <path d="M35.8223 69.2588C34.8781 69.751 34.5799 70.8543 35.2176 71.7178C35.2906 71.8208 35.3855 71.9033 35.4932 71.982C35.8225 72.2856 36.224 72.4565 36.6833 72.5405C36.8476 72.5744 37.0222 72.5496 37.1853 72.4867C37.2276 72.4878 37.2957 72.4813 37.4151 72.4592C37.9427 72.3977 38.4336 72.0279 38.6192 71.5278C38.9015 70.7903 38.672 69.8874 37.995 69.4523C37.368 69.0438 36.5122 68.8985 35.8223 69.2588Z" fill="#FFFFFF"/>
    <path d="M47.2614 73.8161C46.2737 73.4189 45.1148 74.1284 45.013 75.1866C44.9986 75.3714 45.0227 75.5447 45.0634 75.7268C44.7379 76.2274 44.8512 76.7903 45.2973 77.156C45.487 77.3211 45.66 77.4774 45.8895 77.5888C45.9691 77.6204 46.0434 77.6814 46.1229 77.713C46.1858 77.7358 46.182 77.723 46.1525 77.718C46.3487 77.8117 46.5116 77.8877 46.7567 77.9112C47.8385 78.0162 48.7164 77.2107 48.8183 76.1526C48.924 75.1072 48.2157 74.1955 47.2614 73.8161Z" fill="#FFFFFF"/>
    <path d="M56.7629 70.0697C56.2657 70.372 55.8757 71.0308 56.0262 71.6242C56.0593 71.7809 56.1091 71.9464 56.1551 72.0992C56.1627 72.1247 56.1794 72.1336 56.1871 72.159C56.151 72.2254 56.1188 72.3045 56.0866 72.3836C56.0167 72.7101 56.1803 73.1608 56.5421 73.2464C56.6768 73.2753 56.8116 73.3042 56.9373 73.3497C57.3808 73.6606 57.979 73.6473 58.4404 73.2725C58.8709 72.9347 59.0683 72.3338 59.1039 71.7538C59.1942 71.449 59.1755 71.1075 59.0361 70.8301C58.8723 70.5183 58.7083 70.3455 58.4442 70.1194C58.029 69.7167 57.2383 69.7879 56.7629 70.0697Z" fill="#FFFFFF"/>
    <path d="M63.714 60.0784C62.8435 60.2569 62.3956 61.0026 62.3224 61.8299C62.2608 62.5566 62.736 63.2051 63.4429 63.3674C63.4891 63.3812 63.5315 63.3824 63.5738 63.3835C63.6506 63.4993 63.7236 63.6023 63.839 63.7064C64.2055 64.0405 64.6842 64.0493 65.1003 63.8964C65.352 63.8484 65.5922 63.7623 65.844 63.5755C66.2604 63.2836 66.4706 62.6789 66.3802 62.1923C66.309 61.7694 66.1633 61.4245 65.8814 61.0927C65.6816 60.8473 65.4394 60.6008 65.1869 60.413C64.7933 60.1287 64.2006 59.9737 63.714 60.0784Z" fill="#FFFFFF"/>
    <path d="M58.2429 79.2744C57.7043 79.0199 56.9068 79.3014 56.5736 79.7765C56.4397 79.9834 56.3559 80.2169 56.3273 80.4476C56.2232 80.5206 56.1525 80.6113 56.0894 80.7275C55.8821 81.1092 55.9801 81.6212 56.3494 81.8712C56.5776 82.0247 56.8315 82.1705 57.0906 82.2869C57.1367 82.3008 57.2444 82.3795 57.1367 82.3008C57.0124 82.2133 57.1534 82.3097 57.1868 82.3274C57.3535 82.4161 57.5073 82.5087 57.6882 82.5515C58.4324 82.7442 59.0542 82.3906 59.2427 81.6674C59.2427 81.6674 59.2517 81.6508 59.2608 81.6342C59.3148 81.5346 59.3369 81.3753 59.3576 81.258C59.3849 81.0692 59.3826 80.8755 59.3547 80.6895C59.3243 80.4488 59.2297 80.2273 59.0965 80.0174C58.9008 79.6459 58.6149 79.4403 58.2429 79.2744Z" fill="#FFFFFF"/>
    <path d="M66.1478 71.5233C65.5537 71.4104 64.9292 71.8482 64.6678 72.3295C64.4966 72.6448 64.4317 73.0808 64.53 73.454C64.1934 73.6385 63.9451 73.977 63.9111 74.376C63.8676 75.0694 64.3301 75.5829 65.0089 75.6981C65.9199 75.8407 66.8265 75.5958 67.3733 74.8065C67.6448 74.4055 67.8291 73.9474 67.8401 73.472C67.8577 72.9252 67.7045 72.4158 67.2969 72.0386C66.9676 71.735 66.5943 71.6112 66.1478 71.5233Z" fill="#FFFFFF"/>
    <path d="M46.4279 46.6022C46.2244 46.9966 46.1737 47.3868 46.3001 47.807C46.4609 48.3418 46.7955 48.616 47.2751 48.8606C47.4085 48.9315 47.5394 48.9477 47.6665 48.9511C48.354 49.1887 49.2761 48.8558 49.4647 48.1326C49.6765 47.3469 49.4827 46.5165 48.7904 46.0305C48.0071 45.4746 46.8874 45.7558 46.4279 46.6022Z" fill="#FFFFFF"/>
    <path d="M34.0591 52.78C33.5281 53.3424 33.3852 54.3573 33.9554 54.9495C34.0951 55.088 34.2219 55.2303 34.3616 55.3688C34.3616 55.3688 34.3616 55.3688 34.3654 55.3816C34.3078 55.3295 34.2501 55.2774 34.1924 55.2253C34.2911 55.3206 34.3769 55.4198 34.4538 55.5355C34.4294 55.5012 34.4051 55.4668 34.3936 55.4286C34.5024 55.6042 34.6164 55.7504 34.8151 55.8989C34.8523 55.9294 34.8856 55.9471 34.919 55.9649C34.8818 55.9344 34.8575 55.9001 34.8203 55.8696C35.3394 56.3383 35.9979 56.293 36.5735 55.9255C37.7504 55.1827 37.2633 53.1909 36.2324 52.5568C35.5298 52.1294 34.6557 52.1563 34.0591 52.78Z" fill="#FFFFFF"/>
  </g>
  <defs>
    <clipPath id="clip0_1865_2913">
      <rect width="59.3914" height="89.0871" fill="white" transform="translate(0 17.1062) rotate(-16.7397)"/>
    </clipPath>
  </defs>
</svg>