<svg xmlns="http://www.w3.org/2000/svg" width="14" height="20" viewBox="0 0 14 20" fill="none">
<path d="M3.14023 2.20107L13.6972 4.59237C13.834 4.61411 13.9595 4.52716 13.9937 4.39672C14.0165 4.27716 13.9481 4.14672 13.8454 4.10324L3.73307 0.0706348C3.18583 -0.146757 2.5816 0.146722 2.37639 0.722809C2.17118 1.2989 2.45619 1.9402 3.00342 2.15759C3.03763 2.16846 3.09463 2.17933 3.14023 2.20107Z" fill="#FD9900"/>
<path d="M2.39902 17.788L12.9674 15.4402C13.1042 15.4076 13.2296 15.5054 13.2524 15.6359C13.2752 15.7663 13.2068 15.8859 13.1042 15.9293L2.96905 19.9293C2.42182 20.1467 1.81759 19.8533 1.62378 19.2772C1.42997 18.7011 1.70358 18.0598 2.25081 17.8424C2.29642 17.8207 2.35342 17.7989 2.39902 17.788Z" fill="#FD9900"/>
<path d="M1.14545 10.9839L13.0591 10.2448C13.1731 10.2339 13.2643 10.1361 13.2529 10.0165C13.2529 9.90779 13.1617 9.82084 13.0705 9.80997L1.20245 8.67953C0.598217 8.62519 0.0623865 9.09258 0.00538349 9.73388C-0.0516205 10.3752 0.393006 10.9404 0.997241 10.9948C1.04284 10.9948 1.09985 10.9948 1.14545 10.9839Z" fill="#FD9900"/>
</svg>