<svg xmlns="http://www.w3.org/2000/svg" width="14" height="20" viewBox="0 0 14 20" fill="none">
<path d="M10.8559 17.5395L0.298857 15.1482C0.16205 15.1265 0.0366425 15.2134 0.00244054 15.3439C-0.0203608 15.4634 0.0480431 15.5939 0.150649 15.6374L10.263 19.67C10.8103 19.8874 11.4145 19.5939 11.6197 19.0178C11.8249 18.4417 11.5399 17.8004 10.9927 17.583C10.9585 17.5721 10.9015 17.5613 10.8559 17.5395Z" fill="#FD9900"/>
<path d="M11.5971 2.47124L1.02867 4.81906C0.89186 4.85167 0.766453 4.75384 0.743651 4.62341C0.72085 4.49297 0.789254 4.37341 0.89186 4.32993L11.027 0.329931C11.5743 0.11254 12.1785 0.406018 12.3723 0.982105C12.5661 1.55819 12.2925 2.1995 11.7453 2.41689C11.6997 2.43863 11.6427 2.46037 11.5971 2.47124Z" fill="#FD9900"/>
<path d="M12.8506 8.83631L0.936963 9.57544C0.822956 9.58631 0.731751 9.68414 0.743152 9.8037C0.743152 9.9124 0.834357 9.99935 0.925562 10.0102L12.7936 11.1407C13.3979 11.195 13.9337 10.7276 13.9907 10.0863C14.0477 9.445 13.6031 8.87979 12.9989 8.82544C12.9532 8.82544 12.8962 8.82544 12.8506 8.83631Z" fill="#FD9900"/>
</svg>