<svg width="170" height="145" viewBox="0 0 170 145" fill="none" xmlns="http://www.w3.org/2000/svg">
<path opacity="0.2" d="M121.93 25.635C121.93 25.635 120.812 23.9726 127.825 15.9586C134.839 7.94456 149.093 15.4816 149.093 15.4816C149.093 15.4816 138.424 6.73175 127.813 6.12468C117.201 5.51761 109.672 19.1436 108.44 22.9106C107.206 26.6734 110.269 25.8539 113.874 22.9632C117.479 20.0725 112.2 1.96758 112.2 1.96758C112.2 1.96758 105.929 10.1513 99.0197 21.3168C92.1101 32.4824 88.2341 34.1094 85.3282 36.9674C82.4269 39.8239 76.2557 42.1252 72.9357 41.1431C69.6158 40.161 61.6377 30.7216 48.8705 29.7929C36.1033 28.8643 25.3705 33.7317 25.3705 33.7317C25.3705 33.7317 36.9049 34.0325 42.6646 37.1146C48.4243 40.1968 47.172 45.6417 50.6146 46.3653C54.0573 47.0888 58.1568 40.17 52.393 40.5354C46.6292 40.9008 30.5901 40.1399 25.4226 47.1117C20.255 54.0836 9.59758 63.7456 0.957479 64.1454C0.957479 64.1454 20.6446 64.8809 29.208 57.3691C37.7714 49.8573 50.7459 53.7987 50.7459 53.7987L68.8361 51.7536C68.8361 51.7536 77.0867 50.0074 75.4057 38.2243C73.7247 26.4411 74.7967 16.8697 77.2973 16.4472L84.9423 17.6384C84.9423 17.6384 79.146 22.7827 84.1008 33.831C89.0555 44.8792 90.5886 43.6876 90.5886 43.6876M82.882 48.6825C89.8551 45.8042 102.035 31.3476 115.59 26.7754C133.523 20.7281 157.363 29.7607 166.732 60.6169C175.36 89.0321 157.942 123.396 118.87 136.608C73.8985 151.814 42.6953 141.972 26.9491 107.51C14.7873 80.88 26.9741 61.45 40.2374 56.1453C52.5015 51.2386 69.7551 54.1018 82.882 48.6825ZM54.1628 62.3344C67.0979 57.3481 77.9107 61.3429 83.5428 71.6908C87.0224 78.0857 95.0882 100.034 97.5104 107.38C99.9325 114.726 101.614 127.147 85.922 131.381C71.6188 135.238 61.2204 131.665 51.8348 121.515C42.521 111.444 33.1192 93.8694 36.6926 80.5234C40.2661 67.1775 46.9136 65.1311 54.1628 62.3344ZM117.274 39.7235C124.448 37.3063 139.274 35.1241 145.379 46.252C151.48 57.3815 158.266 78.7508 153.876 91.7392C149.488 104.732 137.1 120.868 120.116 114.416C107.267 109.535 95.8912 63.2293 99.0037 55.2835C103.468 43.8892 117.274 39.7235 117.274 39.7235ZM65.7679 68.0545C63.8933 69.0496 62.3691 71.3429 65.963 75.339C70.0224 79.8485 73.7825 79.8231 72.9297 74.8751C71.9143 68.9528 68.4471 66.6324 65.7679 68.0545ZM111.225 51.9823C109.089 52.2722 106.767 53.8904 108.537 58.8312C110.537 64.4078 114.047 65.6561 115.207 60.7666C116.591 54.9043 114.278 51.5673 111.225 51.9823ZM131.968 49.2934C129.91 48.6887 127.058 49.2012 126.319 54.3597C125.485 60.1831 128.049 62.7321 131.398 58.809C135.416 54.0988 134.911 50.1571 131.968 49.2934ZM145.662 71.3092C145.722 69.3061 144.405 66.9032 138.856 67.6731C132.59 68.538 130.658 71.5306 135.65 73.4315C141.635 75.7108 145.577 74.1748 145.662 71.3092ZM143.005 91.366C144.185 89.6889 144.415 87.0008 139.253 84.9637C133.426 82.6595 130.094 84.2731 133.275 88.3186C137.09 93.1654 141.319 93.7658 143.005 91.366ZM131.369 108.382C133.196 107.318 134.616 104.965 130.848 101.108C126.59 96.7554 122.837 96.9294 123.908 101.837C125.189 107.722 128.757 109.909 131.369 108.382ZM49.4941 78.0557C47.9519 79.4582 47.103 82.0338 51.666 85.0613C56.8197 88.4798 60.4486 87.5733 58.2808 82.9834C55.6878 77.4888 51.7013 76.0516 49.4941 78.0557ZM47.7973 102.515C48.1955 104.481 50.0359 106.571 55.2824 104.727C61.2043 102.647 62.409 99.3426 57.0953 98.4658C50.7221 97.4173 47.2233 99.6962 47.7973 102.515ZM61.7813 119.721C63.4104 121.037 66.2468 121.616 69.1309 117.155C72.3888 112.115 71.1237 108.831 66.369 111.203C60.6776 114.041 59.4538 117.843 61.7813 119.721ZM79.9391 125.792C81.8606 126.698 84.7659 126.62 86.3948 121.643C88.2335 116.02 86.1475 113.121 82.1551 116.491C77.3709 120.53 77.1819 124.493 79.9391 125.792Z" stroke="white" stroke-miterlimit="10"/>
</svg>
